<svg width="700" height="550" viewBox="0 0 700 550" fill="none" xmlns="http://www.w3.org/2000/svg">
<path d="M279.74 249.573C279.79 247.293 279.81 245.023 279.7 242.723C279.577 240.353 279.249 237.997 278.72 235.683C278.458 234.513 278.12 233.36 277.71 232.233C277.078 230.447 276.043 228.83 274.685 227.508C273.327 226.187 271.683 225.196 269.88 224.613C268.684 224.224 267.437 224.012 266.18 223.983C264.91 223.983 263.81 224.043 262.619 224.083C260.29 224.183 257.95 224.213 255.619 224.253C253.29 224.283 250.95 224.283 248.619 224.203C246.282 224.212 243.951 223.984 241.659 223.523C242.755 223.969 243.895 224.298 245.06 224.503C246.22 224.723 247.38 224.923 248.55 225.073C250.89 225.363 253.25 225.553 255.6 225.653C257.95 225.773 260.3 225.773 262.659 225.773C263.81 225.783 265.06 225.713 266.13 225.743C267.761 225.798 269.362 226.204 270.822 226.934C272.282 227.664 273.567 228.701 274.59 229.973C275.28 230.824 275.836 231.775 276.24 232.793C276.66 233.853 277.04 234.933 277.369 236.033C278.518 240.475 279.301 245.004 279.71 249.573C272.79 248.743 259.17 247.703 238.13 248.563C237.58 240.243 237.2 234.233 237 232.163C236.13 223.263 243.74 222.413 243.74 222.413L281.98 219.093C280.06 221.943 280.29 223.793 280.98 225.333C281.359 226.464 281.331 227.691 280.9 228.803C278.67 231.803 279.9 234.193 280.45 234.583C281 234.963 280.98 236.963 280.98 236.963C279.44 240.823 281.6 242.053 283.21 243.203C283.389 243.331 283.591 243.423 283.806 243.473C284.02 243.522 284.243 243.529 284.46 243.493L285.16 250.383C285.16 250.383 283.39 250.013 279.74 249.573Z" fill="black"/>
<path d="M356.721 134.627C356.721 134.627 357.337 128.671 362.267 130.314C367.196 131.957 373.975 130.151 376.85 130.027C376.85 130.027 378.699 136.887 380.137 136.887C381.574 136.887 381.369 153.524 373.975 154.962C373.975 154.962 370.681 154.619 369.086 152.98C368.597 152.474 367.982 152.108 367.304 151.92C366.626 151.732 365.91 151.728 365.231 151.909C364.117 152.195 363.105 152.786 362.309 153.615C361.513 154.445 360.965 155.481 360.726 156.605C360.726 156.605 364.321 173.756 377.364 157.53C377.364 157.53 380.239 154.038 382.191 146.438C382.191 146.438 381.472 136.784 386.196 135.552C386.196 135.552 388.045 135.449 387.942 137.606C387.942 137.606 388.98 136.494 388.321 126.801C388.232 125.473 387.769 124.196 386.986 123.119C386.203 122.043 385.131 121.209 383.895 120.714C381.48 119.752 378.74 118.63 377.98 118.195C376.542 117.374 363.397 117.271 359.083 120.968C354.77 124.666 356.721 134.627 356.721 134.627Z" fill="black"/>
<path d="M356.721 134.627L356.854 140.292C356.887 141.232 356.906 142.172 356.981 143.101C357.001 143.992 357.141 144.876 357.398 145.73C358.203 147.457 358.859 149.25 359.36 151.089C359.9 152.905 360.365 154.742 360.726 156.605C360.046 154.836 359.37 153.071 358.727 151.299C358.118 149.527 357.416 147.789 356.623 146.091C356.323 145.138 356.171 144.144 356.174 143.145C356.144 142.188 356.143 141.237 356.189 140.289C356.261 138.393 356.438 136.503 356.721 134.627Z" fill="black"/>
<path d="M357.62 142.458C358.094 142.067 358.642 141.776 359.232 141.601C359.825 141.415 360.443 141.325 361.065 141.337C361.696 141.352 362.318 141.495 362.892 141.757C363.462 142.012 363.955 142.414 364.321 142.92C363.786 142.702 363.235 142.524 362.673 142.388C362.137 142.269 361.59 142.203 361.04 142.192C359.895 142.191 358.751 142.28 357.62 142.458Z" fill="black"/>
<path d="M368.095 142.339C368.63 141.852 369.264 141.488 369.955 141.272C370.645 141.038 371.369 140.92 372.098 140.924C373.558 140.916 374.975 141.416 376.106 142.339C375.398 142.204 374.744 142.028 374.076 141.938C373.422 141.832 372.759 141.779 372.096 141.78C370.743 141.783 369.397 141.972 368.095 142.339Z" fill="black"/>
<path d="M361.317 146.361C361.65 146.349 361.965 146.209 362.196 145.97C362.428 145.73 362.557 145.41 362.557 145.077C362.557 144.744 362.428 144.424 362.196 144.185C361.965 143.945 361.65 143.805 361.317 143.793C360.984 143.805 360.669 143.945 360.437 144.185C360.206 144.424 360.077 144.744 360.077 145.077C360.077 145.41 360.206 145.73 360.437 145.97C360.669 146.209 360.984 146.349 361.317 146.361Z" fill="black"/>
<path d="M370.252 146.207C370.584 146.195 370.9 146.055 371.131 145.815C371.363 145.576 371.492 145.256 371.492 144.923C371.492 144.59 371.363 144.27 371.131 144.03C370.9 143.791 370.584 143.651 370.252 143.639C369.919 143.651 369.604 143.791 369.372 144.03C369.141 144.27 369.011 144.59 369.011 144.923C369.011 145.256 369.141 145.576 369.372 145.815C369.604 146.055 369.919 146.195 370.252 146.207Z" fill="black"/>
<path d="M362.703 149.468C363.403 150.2 364.287 150.729 365.263 150.999C365.723 151.079 366.195 151.036 366.634 150.877C366.875 150.821 367.098 150.684 367.35 150.598C367.588 150.481 367.822 150.345 368.095 150.238C367.949 150.484 367.784 150.717 367.599 150.936C367.394 151.146 367.164 151.329 366.914 151.483C366.38 151.82 365.741 151.948 365.119 151.842C364.51 151.727 363.954 151.419 363.532 150.964C363.126 150.549 362.84 150.032 362.703 149.468Z" fill="black"/>
<path d="M356.3 248.054C356.302 248.066 356.302 248.079 356.3 248.092C356.297 248.104 356.292 248.116 356.284 248.126C356.276 248.137 356.267 248.145 356.256 248.152C356.245 248.158 356.232 248.162 356.22 248.164L349.159 249.494H349.08C345.32 249.024 341.54 248.624 337.76 248.214C333.98 247.804 330.2 247.44 326.42 247.124C322.64 246.814 318.85 246.564 315.08 246.384C312.112 246.225 309.137 246.232 306.17 246.404C306.226 245.811 306.137 245.214 305.909 244.664C308.993 244.545 312.081 244.591 315.159 244.804C318.97 245.034 322.76 245.404 326.55 245.834C334.1 246.694 341.619 247.724 349.119 248.984L356.19 247.974C356.202 247.971 356.215 247.97 356.228 247.973C356.241 247.975 356.253 247.98 356.263 247.988C356.274 247.996 356.282 248.006 356.289 248.017C356.295 248.028 356.299 248.041 356.3 248.054Z" fill="black"/>
<path d="M400.72 199.374C400.909 200.194 401.1 201.024 401.28 201.844C400.81 201.884 400.31 201.904 399.8 201.914C399.429 200.424 399.06 198.944 398.7 197.454L394.01 177.664C392.52 171.344 391.17 164.994 389.78 158.654L360.42 166.544L345.35 170.714L330.32 175.024C330.288 175.036 330.254 175.043 330.22 175.044C325.88 175.044 321.53 175.124 317.18 175.164L304.14 175.334C295.869 175.454 287.619 175.504 279.35 175.574C283.52 187.004 287.77 198.404 291.88 209.854L291.97 210.114C291.31 210.284 290.619 210.454 289.92 210.624L289.9 210.574C285.6 198.734 281.44 186.844 277.2 174.994V174.984C277.117 174.758 277.128 174.509 277.229 174.292C277.331 174.074 277.514 173.906 277.74 173.824C277.84 173.793 277.944 173.776 278.05 173.774C286.75 173.854 295.44 173.894 304.14 174.034L317.18 174.194C321.51 174.234 325.85 174.314 330.17 174.324L345.19 170.124L360.21 165.774L390.179 156.834C390.388 156.773 390.612 156.796 390.803 156.899C390.994 157.002 391.136 157.176 391.2 157.384L391.21 157.434V157.454L400.2 197.094C400.38 197.854 400.55 198.614 400.72 199.374Z" fill="black"/>
<path d="M409.8 236.573C409.81 236.591 409.813 236.612 409.809 236.632C409.806 236.652 409.795 236.67 409.78 236.683C409.771 236.693 409.76 236.7 409.748 236.706C409.736 236.711 409.723 236.713 409.71 236.713C409.697 236.713 409.684 236.711 409.672 236.706C409.66 236.7 409.649 236.693 409.64 236.683C409.63 236.673 409.619 236.653 409.61 236.643C408.49 233.663 407.54 230.623 406.659 227.563C406.89 227.563 407.11 227.553 407.33 227.543C408.08 230.563 408.89 233.573 409.79 236.543C409.79 236.553 409.8 236.563 409.8 236.573Z" fill="black"/>
<path d="M294.259 251.832C288.75 251.071 283.234 250.382 277.694 249.944C272.16 249.457 266.609 249.173 261.058 249.03C255.507 248.879 249.953 248.893 244.405 249.033C238.862 249.183 233.3 249.466 227.811 250.013L227.9 249.998C224.598 250.736 221.448 252.038 218.589 253.846C217.198 254.77 215.916 255.848 214.767 257.058C213.638 258.281 212.655 259.631 211.839 261.081C210.251 264.036 209.266 267.278 208.941 270.617C208.577 273.962 208.73 277.343 209.394 280.641L209.395 280.646C209.401 280.674 209.408 280.71 209.412 280.738C210.191 285.513 212.165 290.186 214.24 294.712C216.35 299.247 218.721 303.678 221.196 308.049C226.156 316.791 231.561 325.292 237.074 333.718C242.588 342.146 248.26 350.472 254.09 358.696L262.878 370.996L265.094 374.057L266.204 375.574C266.533 376.015 266.916 376.414 267.343 376.761C268.202 377.461 269.224 377.932 270.314 378.131C270.89 378.222 271.473 378.267 272.056 378.264L273.942 378.316C278.971 378.435 284.004 378.467 289.017 378.275C290.271 378.227 291.521 378.159 292.769 378.07C293.397 378.026 294.027 377.978 294.554 377.888C295.101 377.775 295.63 377.586 296.126 377.328C297.128 376.804 297.959 376.007 298.524 375.028C299.089 374.049 299.364 372.929 299.315 371.8C299.289 371.233 299.186 370.673 299.012 370.134L298.413 368.339L297.214 364.751L294.816 357.576L290 343.23C283.501 324.129 277.076 304.999 270.457 285.942C270.433 285.875 270.427 285.803 270.438 285.733C270.45 285.662 270.478 285.596 270.522 285.54C270.565 285.484 270.621 285.439 270.686 285.41C270.751 285.381 270.822 285.368 270.893 285.373L270.901 285.374C278.107 285.931 285.345 286.25 292.577 286.403C299.811 286.528 307.049 286.451 314.268 286.095C321.48 285.786 328.666 285.039 335.788 283.858C339.33 283.273 342.827 282.446 346.256 281.381C349.653 280.386 352.877 278.876 355.816 276.904C355.94 276.815 356.086 276.762 356.238 276.75C356.39 276.737 356.542 276.766 356.679 276.833C356.816 276.9 356.932 277.003 357.015 277.13C357.099 277.258 357.146 277.406 357.152 277.558L358.542 307.546L358.887 315.002L359.304 322.49C359.591 327.482 359.832 332.473 360.197 337.457L361.204 352.416C361.384 354.908 361.512 357.407 361.735 359.891L362.493 367.325L362.873 371.042L362.967 371.971C363.006 372.269 363.055 372.509 363.106 372.778C363.413 374.086 364.067 375.286 364.998 376.253C365.93 377.221 367.105 377.919 368.399 378.275C368.927 378.415 369.466 378.503 370.01 378.538L371.88 378.683L375.619 378.972L383.097 379.551L390.576 380.13L394.315 380.419L394.783 380.455L395.162 380.462C395.913 380.476 396.658 380.324 397.343 380.015C398.262 379.611 399.049 378.96 399.619 378.135C400.188 377.309 400.517 376.341 400.569 375.339C400.584 374.891 400.543 374.215 400.512 373.597L400.418 371.724L400.23 367.978L398.725 338.006C397.735 318.024 396.68 298.045 395.78 278.058C395.773 277.9 395.797 277.742 395.851 277.593C395.905 277.444 395.988 277.307 396.095 277.19C396.202 277.073 396.331 276.978 396.475 276.911C396.618 276.844 396.774 276.805 396.932 276.798C396.973 276.796 397.014 276.797 397.055 276.799L397.083 276.801C400.126 276.954 403.174 276.631 406.117 275.843C409.059 275.085 411.823 273.753 414.247 271.921C416.626 270.053 418.543 267.662 419.849 264.934C421.133 262.149 421.944 259.17 422.248 256.119L422.277 256.486C419.717 248.199 414.344 240.432 406.898 235.771C405.933 235.257 404.99 234.669 404.007 234.211C403.021 233.75 402 233.367 400.954 233.063C398.834 232.447 396.662 232.029 394.464 231.816C390.022 231.394 385.545 231.482 381.123 232.08C376.685 232.622 372.322 233.662 368.116 235.18C366.024 235.929 364.013 236.888 362.114 238.042C361.18 238.618 360.305 239.286 359.504 240.037C358.702 240.755 358.048 241.623 357.577 242.591C357.352 243.068 357.191 243.573 357.098 244.093L356.845 245.755C356.702 246.868 356.56 247.982 356.463 249.103C356.252 251.341 356.112 253.59 356.032 255.841C355.866 260.343 355.864 264.851 356.028 269.363C356.029 269.397 356.017 269.431 355.995 269.456C355.972 269.481 355.94 269.496 355.906 269.498C355.872 269.499 355.839 269.487 355.814 269.465C355.789 269.442 355.774 269.411 355.771 269.377C355.513 264.865 355.418 260.348 355.485 255.826C355.517 253.565 355.609 251.304 355.774 249.045C355.847 247.915 355.966 246.787 356.086 245.658L356.307 243.969C356.399 243.375 356.57 242.796 356.814 242.247C357.308 241.169 358.006 240.197 358.87 239.385C359.699 238.573 360.607 237.847 361.582 237.216C363.516 235.982 365.571 234.947 367.714 234.127C376.298 230.923 385.474 229.613 394.612 230.284C396.912 230.474 399.19 230.878 401.415 231.491C402.542 231.801 403.644 232.197 404.71 232.676C405.779 233.156 406.767 233.75 407.799 234.285C411.76 236.715 415.215 239.885 417.976 243.623C420.746 247.357 422.871 251.528 424.265 255.963C424.297 256.067 424.308 256.176 424.298 256.284L424.293 256.33C423.993 259.624 423.144 262.843 421.782 265.857C420.356 268.901 418.249 271.576 415.623 273.674C412.978 275.715 409.954 277.211 406.727 278.076C403.523 278.968 400.198 279.345 396.876 279.193L398.179 277.936C399.325 297.91 400.315 317.892 401.37 337.87L402.933 367.839L403.128 371.585L403.226 373.458C403.255 374.09 403.307 374.661 403.288 375.464C403.22 376.976 402.728 378.437 401.867 379.681C401.006 380.925 399.812 381.901 398.422 382.497C397.387 382.953 396.264 383.177 395.134 383.153L394.575 383.137L394.108 383.098L390.368 382.79L382.89 382.173L375.411 381.556L371.672 381.247L369.802 381.093C369.098 381.041 368.401 380.922 367.72 380.737C365.986 380.253 364.414 379.309 363.172 378.006C361.93 376.703 361.062 375.088 360.662 373.333C360.594 372.99 360.525 372.614 360.486 372.292L360.395 371.355L360.031 367.606L359.304 360.109C359.093 357.611 358.978 355.113 358.81 352.615L357.877 337.627C357.53 332.633 357.369 327.627 357.129 322.63L356.793 315.132L356.528 307.596L355.468 277.615L356.804 278.269C353.7 280.314 350.299 281.868 346.721 282.876C343.217 283.923 339.645 284.727 336.03 285.284C328.841 286.394 321.591 287.063 314.321 287.289C307.065 287.567 299.806 287.542 292.556 287.356C285.304 287.171 278.063 286.822 270.826 286.231L271.27 285.663C277.725 304.782 284.35 323.837 290.944 342.905L295.929 357.193L298.432 364.334L299.682 367.905L300.308 369.69C300.532 370.348 300.668 371.033 300.71 371.727C300.789 373.131 300.466 374.529 299.78 375.756C299.093 376.984 298.071 377.991 296.833 378.659C296.214 378.993 295.552 379.239 294.865 379.391C294.149 379.524 293.521 379.572 292.893 379.627C291.626 379.736 290.359 379.823 289.092 379.888C284.027 380.154 278.967 380.192 273.91 380.143L272.013 380.118C271.335 380.128 270.658 380.083 269.987 379.983C268.58 379.746 267.255 379.157 266.136 378.272C265.577 377.831 265.075 377.322 264.641 376.758L263.496 375.237L261.232 372.201C258.212 368.154 255.262 364.055 252.33 359.944C246.47 351.719 240.747 343.396 235.158 334.976C229.603 326.535 224.273 317.938 219.308 309.112C216.838 304.692 214.468 300.207 212.348 295.584C210.265 290.949 208.259 286.225 207.431 281.007L207.449 281.104C206.748 277.581 206.6 273.969 207.011 270.4C207.379 266.808 208.479 263.329 210.242 260.177C211.151 258.612 212.24 257.157 213.487 255.844C214.746 254.551 216.148 253.405 217.665 252.426C220.711 250.552 224.058 249.219 227.558 248.484L227.575 248.48L227.648 248.469C233.238 247.988 238.799 247.782 244.378 247.706C249.953 247.625 255.526 247.722 261.096 247.997C266.662 248.258 272.222 248.661 277.759 249.266C283.304 249.806 288.811 250.666 294.3 251.579C294.316 251.582 294.332 251.588 294.347 251.597C294.361 251.606 294.373 251.617 294.383 251.631C294.393 251.645 294.4 251.66 294.404 251.677C294.408 251.693 294.408 251.71 294.405 251.727C294.399 251.76 294.38 251.789 294.353 251.809C294.326 251.829 294.292 251.837 294.259 251.832Z" fill="black"/>
<path d="M245.394 268.138L251.471 273.074C253.507 274.701 255.526 276.342 257.593 277.917C259.648 279.507 261.747 281.035 263.901 282.475C264.975 283.195 266.09 283.854 267.239 284.448C268.369 285.085 269.592 285.541 270.864 285.802C268.204 285.696 265.777 284.383 263.498 283.13C261.233 281.799 259.057 280.323 256.984 278.71C254.915 277.101 252.898 275.428 250.973 273.656C249.041 271.891 247.154 270.077 245.394 268.138Z" fill="black"/>
<path d="M307.425 252.117C312.116 252.633 316.754 253.56 321.284 254.886C325.826 256.204 330.26 257.869 334.547 259.867C338.811 261.936 342.854 264.43 346.617 267.311C350.325 270.252 353.59 273.713 356.31 277.586C354.81 275.78 353.203 274.066 351.497 272.452L350.224 271.245C349.813 270.829 349.371 270.443 348.904 270.092L346.149 267.921C342.367 265.172 338.338 262.777 334.115 260.768C329.886 258.757 325.525 257.036 321.061 255.619C318.832 254.893 316.579 254.243 314.301 253.67C312.034 253.053 309.737 252.558 307.425 252.117Z" fill="black"/>
<path d="M380.547 259.511C381.628 259.59 382.683 259.878 383.655 260.359C384.624 260.845 385.546 261.421 386.408 262.08C388.122 263.406 389.649 264.955 390.951 266.687C391.625 267.53 392.194 268.445 392.812 269.326C393.344 270.259 393.929 271.162 394.411 272.12C394.877 273.087 395.373 274.035 395.81 275.011C396.2 276.01 396.62 276.991 396.979 277.997C395.883 276.158 394.861 274.301 393.744 272.503L392.021 269.846C391.393 269.002 390.829 268.107 390.161 267.298C388.901 265.623 387.483 264.075 385.925 262.673C385.149 261.971 384.312 261.34 383.423 260.787C382.541 260.206 381.57 259.775 380.547 259.511Z" fill="black"/>
<path d="M330.224 174.681C332.174 180.799 333.999 186.949 335.702 193.13C337.431 199.304 339.047 205.507 340.641 211.715C342.199 217.933 343.733 224.157 345.153 230.409C346.601 236.655 347.924 242.932 349.121 249.241C347.17 243.123 345.343 236.974 343.64 230.793C341.912 224.618 340.296 218.415 338.704 212.206C337.148 205.988 335.615 199.764 334.195 193.512C332.748 187.266 331.424 180.989 330.224 174.681Z" fill="black"/>
<path d="M306.212 246.407C306.117 247.163 305.808 247.876 305.323 248.463C304.837 249.051 304.195 249.487 303.47 249.723C302.977 249.853 302.47 249.922 301.96 249.926C299.969 249.889 297.997 249.529 296.122 248.86C294.234 248.256 292.426 247.428 290.735 246.395C289.887 245.866 289.096 245.251 288.374 244.56C288.006 244.209 287.684 243.813 287.415 243.381C287.118 242.941 286.959 242.421 286.959 241.89L287.271 242.017C286.563 242.765 285.668 243.31 284.679 243.595C284.419 243.659 284.149 243.667 283.886 243.62C283.622 243.574 283.372 243.472 283.15 243.323C282.743 243.039 282.328 242.763 281.933 242.446C281.088 241.832 280.505 240.921 280.302 239.896C280.195 238.865 280.344 237.825 280.736 236.866L280.718 236.961C280.728 236.279 280.606 235.602 280.358 234.967C280.335 234.925 280.304 234.888 280.268 234.857C280.178 234.787 280.095 234.707 280.02 234.621C279.884 234.459 279.768 234.283 279.673 234.095C279.495 233.734 279.372 233.349 279.309 232.952C279.181 232.168 279.247 231.365 279.501 230.612C279.748 229.875 280.107 229.182 280.567 228.556L280.514 228.65C280.779 227.914 280.876 227.129 280.798 226.351C280.774 226.167 280.734 225.985 280.679 225.808C280.622 225.642 280.55 225.476 280.453 225.252C279.914 223.961 279.893 222.512 280.394 221.206C280.702 220.373 281.115 219.582 281.623 218.853C281.643 218.823 281.667 218.796 281.693 218.772L281.701 218.766C281.865 218.612 282.012 218.442 282.14 218.258C282.272 218.072 282.381 217.87 282.463 217.657C282.625 217.239 282.653 216.781 282.543 216.347L282.558 216.392C282.165 215.475 281.993 214.478 282.055 213.482C282.09 213.195 282.2 212.923 282.374 212.692C282.558 212.466 282.807 212.302 283.087 212.222C283.548 212.061 283.997 211.944 284.451 211.823C286.259 211.343 288.085 210.968 289.909 210.582C289.915 210.581 289.92 210.581 289.926 210.582C289.931 210.583 289.937 210.585 289.941 210.588C289.946 210.591 289.95 210.595 289.953 210.6C289.956 210.604 289.959 210.61 289.96 210.615C289.962 210.626 289.96 210.636 289.955 210.646C289.949 210.655 289.94 210.662 289.93 210.665L284.595 212.311C284.157 212.456 283.711 212.603 283.302 212.774C283.132 212.823 282.983 212.929 282.88 213.074C282.783 213.223 282.724 213.395 282.71 213.572C282.702 214.444 282.89 215.306 283.261 216.094L283.277 216.14C283.45 216.727 283.435 217.354 283.236 217.933C283.139 218.215 283.007 218.484 282.844 218.733C282.679 218.987 282.482 219.218 282.258 219.421L282.336 219.334C281.347 220.6 280.863 222.189 280.978 223.792C281.039 224.176 281.146 224.553 281.294 224.913C281.363 225.081 281.458 225.306 281.533 225.544C281.6 225.773 281.647 226.009 281.673 226.247C281.752 227.168 281.619 228.095 281.285 228.957C281.274 228.988 281.258 229.017 281.239 229.043L281.233 229.051C280.35 230.109 279.915 231.47 280.019 232.844C280.059 233.173 280.149 233.494 280.284 233.796C280.349 233.937 280.43 234.071 280.524 234.195C280.566 234.249 280.613 234.298 280.666 234.342C280.77 234.429 280.856 234.536 280.919 234.656C281.189 235.395 281.298 236.182 281.241 236.966C281.242 236.998 281.235 237.031 281.223 237.061C280.81 237.928 280.622 238.885 280.675 239.844C280.746 240.316 280.91 240.769 281.157 241.177C281.405 241.586 281.731 241.94 282.117 242.222C282.894 242.78 283.658 243.647 284.62 243.32C285.542 243.031 286.368 242.495 287.008 241.77C287.032 241.744 287.064 241.727 287.098 241.719C287.133 241.711 287.169 241.713 287.202 241.726C287.235 241.738 287.264 241.76 287.285 241.789C287.306 241.817 287.318 241.851 287.32 241.887L287.32 241.897C287.479 242.811 287.987 243.628 288.738 244.173C289.465 244.794 290.254 245.339 291.093 245.798C292.772 246.746 294.533 247.54 296.354 248.173C298.157 248.839 300.044 249.25 301.961 249.393C302.895 249.488 303.832 249.24 304.596 248.694C304.998 248.441 305.343 248.106 305.606 247.71C305.87 247.315 306.048 246.868 306.127 246.4C306.128 246.389 306.134 246.378 306.143 246.372C306.153 246.365 306.164 246.362 306.175 246.363C306.186 246.365 306.195 246.37 306.202 246.378C306.209 246.386 306.212 246.396 306.212 246.407Z" fill="black"/>
<path d="M305.87 244.679L305.637 244.251C305.633 244.242 305.63 244.233 305.629 244.223C305.628 244.213 305.628 244.204 305.631 244.194C305.634 244.185 305.638 244.176 305.645 244.169C305.651 244.161 305.658 244.155 305.667 244.15L305.691 244.142L305.701 244.141C306.095 244.086 306.491 244.069 306.877 244.002C307.257 243.925 307.627 243.805 307.979 243.643C308.682 243.365 309.253 242.83 309.578 242.147C309.882 241.456 310.019 240.704 309.979 239.951C309.96 239.185 309.833 238.426 309.604 237.696C309.575 237.605 309.583 237.507 309.627 237.423C309.67 237.338 309.746 237.275 309.836 237.246C309.862 237.238 309.888 237.233 309.915 237.23C310.864 237.176 311.79 236.917 312.63 236.471C313.034 236.263 313.393 235.976 313.686 235.629C313.979 235.281 314.2 234.878 314.336 234.444C314.479 234.016 314.519 233.56 314.454 233.113C314.359 232.675 314.132 232.276 313.804 231.969C313.115 231.27 312.333 230.669 311.48 230.183L311.469 230.177C311.438 230.158 311.414 230.13 311.4 230.097C311.386 230.063 311.384 230.026 311.392 229.991C311.401 229.956 311.421 229.925 311.449 229.902C311.477 229.879 311.512 229.866 311.548 229.865C312.118 229.856 312.677 229.713 313.181 229.447C313.684 229.181 314.118 228.8 314.445 228.334C315.053 227.353 315.308 226.193 315.168 225.047C315.138 224.773 315.068 224.504 314.961 224.251C314.901 224.134 314.839 224.054 314.797 224.062C314.637 224.016 314.483 223.954 314.336 223.877C313.797 223.592 313.299 223.273 312.8 222.951C311.806 222.303 310.839 221.625 309.886 220.921C309.83 220.879 309.788 220.822 309.765 220.756C309.742 220.689 309.74 220.618 309.758 220.551C309.776 220.483 309.815 220.423 309.868 220.377C309.921 220.332 309.987 220.304 310.057 220.297L310.076 220.295C310.462 220.279 310.832 220.134 311.125 219.883C311.367 219.592 311.502 219.226 311.505 218.848C311.522 218.411 311.488 217.974 311.402 217.546C311.352 217.133 311.249 216.728 311.094 216.341C310.925 216.046 310.63 215.93 310.154 215.715C309.728 215.515 309.299 215.319 308.877 215.103C308.024 214.675 307.197 214.196 306.4 213.67C304.848 212.596 303.327 211.557 301.715 210.641C300.921 210.18 300.09 209.785 299.231 209.461C298.812 209.3 298.38 209.177 297.939 209.094C297.728 209.058 297.513 209.043 297.299 209.048C297.127 209.053 296.957 209.092 296.801 209.165L296.712 209.224C296.7 209.232 296.688 209.237 296.675 209.24C295.116 209.57 293.546 209.854 291.98 210.155C291.974 210.156 291.969 210.156 291.963 210.155C291.957 210.154 291.952 210.152 291.948 210.149C291.943 210.146 291.939 210.142 291.936 210.137C291.933 210.132 291.93 210.127 291.929 210.122C291.927 210.111 291.929 210.1 291.935 210.091C291.941 210.082 291.949 210.075 291.96 210.072C293.493 209.634 295.023 209.177 296.564 208.768L296.439 208.843C296.668 208.651 296.953 208.538 297.251 208.521C297.505 208.497 297.76 208.498 298.013 208.524C298.499 208.579 298.977 208.685 299.441 208.84C300.349 209.142 301.23 209.519 302.075 209.966C303.745 210.846 305.354 211.838 306.89 212.935C307.662 213.435 308.462 213.889 309.287 214.294L310.535 214.917C311.061 215.1 311.515 215.448 311.829 215.909C311.963 216.157 312.052 216.427 312.089 216.706L312.213 217.413C312.3 217.907 312.327 218.409 312.294 218.909C312.27 219.475 312.041 220.014 311.649 220.424C311.221 220.783 310.682 220.984 310.123 220.993L310.313 220.367C311.233 221.092 312.159 221.821 313.099 222.52C313.57 222.865 314.048 223.21 314.539 223.5C314.65 223.565 314.767 223.62 314.887 223.666C314.986 223.699 315.077 223.755 315.15 223.829C315.224 223.903 315.279 223.994 315.311 224.093C315.421 224.388 315.486 224.698 315.505 225.012C315.619 226.23 315.322 227.451 314.662 228.481C314.315 228.988 313.856 229.407 313.319 229.706C312.783 230.004 312.185 230.174 311.571 230.203L311.639 229.884C312.559 230.34 313.413 230.919 314.177 231.603C314.605 231.967 314.911 232.452 315.056 232.993C315.171 233.537 315.157 234.1 315.014 234.637C314.86 235.165 314.604 235.658 314.259 236.086C313.914 236.515 313.488 236.871 313.005 237.135C312.066 237.632 311.026 237.906 309.964 237.937L310.276 237.472C310.51 238.276 310.629 239.108 310.63 239.946C310.643 240.798 310.441 241.639 310.044 242.393C309.632 243.153 308.944 243.725 308.121 243.99C307.731 244.127 307.327 244.219 306.916 244.264C306.509 244.294 306.102 244.285 305.699 244.286L305.762 244.177L305.949 244.648C305.953 244.658 305.954 244.669 305.95 244.679C305.946 244.69 305.938 244.698 305.928 244.702C305.918 244.707 305.907 244.708 305.897 244.704C305.886 244.701 305.878 244.694 305.873 244.684L305.87 244.679Z" fill="black"/>
<path d="M289.375 215.093L300.563 215.172C302.483 215.222 304.357 215.77 306.001 216.762C306.806 217.27 307.562 217.851 308.26 218.497L310.38 220.32C310.423 220.357 310.458 220.401 310.483 220.451C310.508 220.502 310.524 220.556 310.528 220.612C310.532 220.668 310.525 220.725 310.508 220.778C310.49 220.832 310.462 220.881 310.426 220.924C310.389 220.966 310.344 221.001 310.294 221.027C310.244 221.052 310.189 221.067 310.133 221.071C310.077 221.076 310.021 221.069 309.967 221.051C309.914 221.034 309.865 221.006 309.822 220.969L309.81 220.958L307.761 219.056C307.116 218.409 306.412 217.823 305.659 217.306C304.131 216.303 302.368 215.715 300.544 215.6L289.375 215.093Z" fill="black"/>
<path d="M286.756 223.874L293.486 223.155L296.851 222.795C297.983 222.625 299.132 222.605 300.269 222.735C301.415 222.884 302.53 223.211 303.575 223.705C304.604 224.216 305.569 224.848 306.448 225.588L311.824 229.7C311.869 229.734 311.908 229.777 311.937 229.826C311.966 229.874 311.985 229.928 311.992 229.985C312 230.041 311.997 230.098 311.983 230.153C311.968 230.208 311.943 230.259 311.909 230.304C311.874 230.349 311.831 230.387 311.782 230.415C311.733 230.443 311.678 230.462 311.622 230.469C311.566 230.476 311.509 230.472 311.454 230.456C311.399 230.441 311.348 230.415 311.304 230.38L311.293 230.372L306.05 226.092C305.226 225.35 304.316 224.71 303.339 224.185C302.355 223.681 301.299 223.335 300.208 223.158C299.105 222.997 297.986 222.983 296.88 223.115L293.505 223.368L286.756 223.874Z" fill="black"/>
<path d="M286.217 233.81L298.754 232.06C300.392 231.788 302.072 232.13 303.475 233.019L304.814 233.86L310.175 237.226C310.27 237.287 310.338 237.383 310.363 237.493C310.388 237.603 310.368 237.719 310.308 237.815C310.248 237.911 310.152 237.979 310.042 238.004C309.931 238.03 309.816 238.011 309.719 237.951L309.707 237.943L304.464 234.398C303.645 233.769 302.754 233.239 301.811 232.818C300.851 232.463 299.82 232.349 298.806 232.484L286.217 233.81Z" fill="black"/>
<path d="M287.141 241.898L291.933 241.33C293.538 241.154 295.109 240.921 296.742 240.792C298.396 240.724 300.043 241.027 301.564 241.679C303.057 242.378 304.455 243.115 305.905 243.831C306.007 243.881 306.084 243.97 306.121 244.077C306.157 244.185 306.149 244.302 306.099 244.404C306.049 244.506 305.96 244.583 305.853 244.62C305.745 244.656 305.627 244.649 305.526 244.598L305.51 244.59L305.504 244.587C304.104 243.816 302.688 242.992 301.299 242.263C299.88 241.58 298.326 241.224 296.751 241.22C295.175 241.274 293.551 241.439 291.953 241.543L287.141 241.898Z" fill="black"/>
<path d="M400.069 199.984C401.672 198.154 403.559 196.593 405.657 195.362C406.722 194.717 407.909 194.301 409.142 194.138C410.376 193.976 411.631 194.072 412.825 194.42C413.127 194.521 413.419 194.649 413.699 194.8C413.971 194.963 414.232 195.142 414.481 195.337C415.998 196.458 417.144 198.008 417.77 199.788C418.182 200.97 418.378 202.217 418.348 203.468C418.343 203.78 418.322 204.092 418.291 204.403C418.264 204.68 418.26 204.96 418.279 205.238C418.298 205.748 418.48 206.239 418.797 206.638L418.839 206.682C419.332 207.276 419.692 207.97 419.895 208.715C420.097 209.461 420.138 210.241 420.013 211.003C419.904 211.747 419.699 212.472 419.403 213.162C419.126 213.865 418.662 214.466 418.772 214.985C418.838 215.301 418.947 215.607 419.098 215.893C419.27 216.219 419.426 216.555 419.564 216.897C419.812 217.623 419.903 218.393 419.833 219.156C419.811 219.947 419.539 220.71 419.055 221.336C418.977 221.413 418.893 221.484 418.804 221.549C418.742 221.591 418.683 221.638 418.627 221.689C418.515 221.788 418.422 221.906 418.352 222.037C418.211 222.304 418.153 222.606 418.185 222.906L418.137 222.798C418.602 223.401 418.863 224.136 418.883 224.898C418.869 225.279 418.778 225.653 418.615 225.999C418.453 226.344 418.223 226.653 417.939 226.907C417.392 227.425 416.687 227.745 415.938 227.816C415.574 227.808 415.213 227.757 414.861 227.664C414.526 227.617 414.176 227.6 413.829 227.585C411.031 227.538 408.217 227.646 405.407 227.742C402.596 227.839 399.782 227.903 396.963 227.819C395.54 227.813 394.122 227.656 392.732 227.352C392.001 227.193 391.32 226.856 390.75 226.371C390.597 226.232 390.473 226.063 390.385 225.874C390.298 225.686 390.249 225.482 390.242 225.275C390.234 224.86 390.363 224.453 390.609 224.118L390.766 224.546C389.783 224.358 388.811 224.116 387.854 223.822C386.861 223.54 385.927 223.08 385.098 222.464C384.636 222.112 384.319 221.602 384.209 221.031C384.147 220.447 384.309 219.862 384.663 219.393C385.301 218.557 386.112 217.868 387.041 217.373L387.101 218.079C386.336 217.828 385.584 217.538 384.849 217.21C384.104 216.874 383.395 216.464 382.731 215.988C382.041 215.493 381.46 214.861 381.024 214.132C380.785 213.741 380.629 213.305 380.566 212.851C380.504 212.397 380.537 211.935 380.662 211.494L380.632 211.653C380.648 211.449 380.714 211.251 380.823 211.077C380.933 210.904 381.083 210.76 381.262 210.658C381.514 210.487 381.785 210.344 382.069 210.233C382.595 210.027 383.136 209.86 383.687 209.733C384.759 209.48 385.844 209.281 386.937 209.139C389.11 208.848 391.281 208.663 393.468 208.542L393.49 209.426C391.826 209.428 390.172 209.176 388.584 208.679C387.773 208.421 387.004 208.044 386.303 207.561C385.942 207.314 385.616 207.02 385.333 206.687C384.998 206.33 384.773 205.883 384.687 205.4C384.669 205.145 384.703 204.888 384.787 204.646C384.87 204.404 385.003 204.182 385.175 203.992C385.47 203.652 385.826 203.369 386.225 203.159C386.964 202.757 387.755 202.456 388.575 202.266C390.169 201.887 391.796 201.666 393.434 201.606C396.701 201.412 399.918 201.932 403.088 201.416C406.291 201.066 409.346 199.874 411.94 197.963L411.945 197.959C411.954 197.952 411.965 197.949 411.976 197.95C411.987 197.951 411.997 197.956 412.004 197.965C412.011 197.974 412.015 197.985 412.014 197.996C412.013 198.007 412.008 198.017 411.999 198.024C409.451 200.076 406.393 201.394 403.152 201.836C401.542 202.09 399.913 202.199 398.284 202.16C396.668 202.144 395.069 202.1 393.47 202.229C391.881 202.32 390.304 202.566 388.763 202.965C388.013 203.154 387.291 203.444 386.618 203.826C385.974 204.194 385.439 204.759 385.506 205.305C385.75 205.954 386.207 206.502 386.801 206.86C387.433 207.292 388.125 207.627 388.856 207.855C390.357 208.318 391.919 208.549 393.49 208.541C393.604 208.542 393.715 208.587 393.797 208.668C393.879 208.748 393.926 208.858 393.929 208.972C393.932 209.087 393.89 209.199 393.812 209.283C393.734 209.368 393.626 209.419 393.512 209.425C391.359 209.552 389.195 209.744 387.06 210.037C385.994 210.188 384.928 210.351 383.894 210.594C383.384 210.706 382.883 210.855 382.395 211.04C382.171 211.125 381.958 211.234 381.758 211.364C381.563 211.483 381.476 211.632 381.488 211.653C381.492 211.661 381.494 211.669 381.495 211.677C381.496 211.686 381.495 211.694 381.493 211.702L381.457 211.813C381.299 212.466 381.406 213.155 381.755 213.729C382.128 214.359 382.627 214.907 383.22 215.338C383.835 215.787 384.493 216.173 385.184 216.492C385.887 216.814 386.606 217.099 387.339 217.347C387.436 217.381 387.516 217.452 387.561 217.544C387.606 217.637 387.612 217.744 387.579 217.841C387.546 217.931 387.482 218.007 387.399 218.054C386.567 218.478 385.834 219.073 385.247 219.799C384.986 220.119 384.857 220.525 384.885 220.937C384.964 221.348 385.191 221.715 385.523 221.969C386.279 222.545 387.132 222.982 388.042 223.258C388.971 223.564 389.916 223.818 390.873 224.021C390.943 224.037 391.004 224.079 391.043 224.14C391.081 224.201 391.094 224.274 391.079 224.344C391.07 224.382 391.053 224.418 391.03 224.449C390.841 224.673 390.743 224.96 390.757 225.253C390.771 225.546 390.896 225.823 391.105 226.028C391.606 226.46 392.205 226.762 392.85 226.91C394.205 227.225 395.588 227.396 396.979 227.42C399.78 227.542 402.59 227.518 405.399 227.46C408.209 227.424 411.014 227.222 413.839 227.26C414.193 227.272 414.547 227.285 414.908 227.331C415.236 227.417 415.573 227.461 415.912 227.462C416.571 227.379 417.185 227.08 417.656 226.611C417.892 226.391 418.081 226.125 418.212 225.83C418.344 225.535 418.414 225.216 418.419 224.893C418.38 224.24 418.137 223.616 417.723 223.11L417.717 223.102C417.694 223.072 417.68 223.037 417.674 223C417.611 222.584 417.679 222.159 417.868 221.783C417.963 221.595 418.09 221.425 418.244 221.281C418.319 221.209 418.399 221.142 418.483 221.082C418.537 221.038 418.589 220.992 418.638 220.943C419.008 220.405 419.207 219.766 419.206 219.113C419.252 218.441 419.156 217.767 418.925 217.135C418.562 216.488 418.273 215.802 418.065 215.09C418.011 214.665 418.086 214.232 418.281 213.85C418.443 213.492 418.599 213.205 418.728 212.88C418.994 212.248 419.176 211.584 419.27 210.905C419.372 210.246 419.335 209.573 419.161 208.928C418.988 208.284 418.681 207.684 418.261 207.165L418.303 207.208C417.229 206.038 417.587 204.521 417.63 203.451C417.67 202.283 417.499 201.118 417.126 200.011C416.757 198.903 416.163 197.885 415.381 197.018C414.994 196.58 414.566 196.178 414.104 195.819C413.671 195.442 413.172 195.148 412.632 194.954C411.508 194.606 410.324 194.493 409.155 194.621C407.985 194.75 406.854 195.118 405.833 195.702C403.712 196.835 401.787 198.3 400.131 200.043C400.123 200.051 400.112 200.056 400.101 200.056C400.089 200.056 400.078 200.052 400.07 200.044C400.062 200.036 400.058 200.025 400.058 200.014C400.057 200.003 400.061 199.992 400.069 199.984Z" fill="black"/>
<path d="M393.532 208.557C396.651 208.915 399.797 208.993 402.93 208.789C404.498 208.694 406.054 208.451 407.577 208.064C409.122 207.732 410.562 207.024 411.768 206.004C410.598 207.087 409.179 207.865 407.636 208.269C406.114 208.73 404.552 209.047 402.971 209.215C399.808 209.565 396.619 209.63 393.444 209.408C393.388 209.404 393.333 209.39 393.282 209.365C393.232 209.34 393.187 209.306 393.149 209.263C393.112 209.221 393.084 209.172 393.066 209.119C393.048 209.065 393.04 209.009 393.044 208.953C393.047 208.897 393.062 208.842 393.087 208.792C393.112 208.741 393.146 208.696 393.188 208.659C393.231 208.622 393.28 208.593 393.333 208.575C393.386 208.557 393.443 208.55 393.499 208.553L393.516 208.555L393.532 208.557Z" fill="black"/>
<path d="M387.269 217.287C391.502 217.778 395.76 218.013 400.022 217.99C402.153 217.979 404.282 217.839 406.396 217.569C408.526 217.374 410.596 216.759 412.487 215.761C410.621 216.826 408.562 217.513 406.429 217.781C404.312 218.123 402.176 218.336 400.034 218.418C395.746 218.584 391.453 218.49 387.177 218.138C387.064 218.128 386.959 218.075 386.885 217.988C386.812 217.902 386.776 217.79 386.785 217.677C386.794 217.564 386.847 217.459 386.934 217.385C387.02 217.311 387.132 217.275 387.246 217.284L387.258 217.285L387.269 217.287Z" fill="black"/>
<path d="M390.834 223.857C394.064 224.034 397.314 224.112 400.555 224.061C402.175 224.023 403.797 223.969 405.41 223.811C407.031 223.725 408.625 223.364 410.125 222.744C408.646 223.433 407.06 223.866 405.436 224.023C403.822 224.253 402.197 224.379 400.572 224.489C397.319 224.682 394.065 224.748 390.801 224.712C390.687 224.711 390.579 224.665 390.499 224.584C390.42 224.502 390.376 224.393 390.377 224.28C390.379 224.166 390.425 224.058 390.506 223.978C390.587 223.899 390.696 223.855 390.81 223.856L390.827 223.857L390.834 223.857Z" fill="black"/>
<path d="M388.041 137.595C388.21 138.52 388.32 139.454 388.373 140.393C388.426 141.347 388.39 142.304 388.267 143.252C388.133 144.242 387.807 145.197 387.306 146.061C387.039 146.554 386.67 146.983 386.224 147.321C385.778 147.659 385.264 147.897 384.718 148.02L385.308 147.256C385.517 148.257 385.803 149.241 386.163 150.198C386.334 150.651 386.543 151.088 386.787 151.506C386.945 151.815 387.191 152.07 387.496 152.238L387.4 152.211C391.212 152.991 395.024 153.777 398.81 154.673C402.595 155.58 406.358 156.588 410.134 157.539C417.68 159.439 425.318 160.954 433.019 162.076L434.449 162.27L435.176 162.367C435.518 162.425 435.844 162.552 436.134 162.74C437.03 163.41 437.735 164.303 438.179 165.329C439.041 167.142 439.715 169.038 440.191 170.988C441.149 174.803 441.871 178.673 442.353 182.576C443.328 190.349 443.626 198.192 443.246 206.016L443.244 206.061C443.235 206.23 443.16 206.388 443.036 206.503C442.912 206.617 442.747 206.678 442.578 206.672C438.624 206.53 434.67 206.367 430.716 206.104C430.691 206.102 430.667 206.091 430.65 206.073C430.633 206.054 430.623 206.03 430.623 206.004C430.623 205.979 430.633 205.954 430.65 205.936C430.667 205.917 430.691 205.906 430.716 205.904C434.67 205.641 438.624 205.478 442.578 205.337L441.911 205.992C441.734 198.248 441.15 190.512 440.239 182.837C439.827 179.006 439.209 175.2 438.386 171.436C437.985 169.592 437.423 167.786 436.708 166.039C436.418 165.254 435.94 164.553 435.317 163.996C435.206 163.908 435.08 163.842 434.946 163.798C434.735 163.746 434.469 163.7 434.234 163.651L432.788 163.351L421.391 160.73C417.59 159.89 413.776 159.114 409.94 158.44C406.106 157.754 402.262 157.111 398.443 156.357C394.625 155.594 390.834 154.711 387.046 153.811L387.001 153.8L386.95 153.783C386.289 153.481 385.752 152.959 385.432 152.306C385.156 151.794 384.925 151.259 384.741 150.707C384.405 149.65 384.158 148.567 384.003 147.469C383.977 147.293 384.022 147.114 384.128 146.971C384.234 146.829 384.392 146.734 384.568 146.708L384.593 146.704C384.934 146.642 385.255 146.5 385.531 146.291C385.857 146.057 386.141 145.769 386.372 145.441C386.855 144.721 387.208 143.922 387.412 143.079C387.626 142.196 387.759 141.296 387.809 140.389C387.865 139.472 387.852 138.548 387.843 137.617C387.842 137.603 387.844 137.59 387.848 137.578C387.852 137.565 387.859 137.554 387.868 137.544C387.876 137.534 387.887 137.526 387.899 137.521C387.911 137.515 387.923 137.512 387.937 137.511C387.961 137.51 387.985 137.519 388.004 137.534C388.023 137.549 388.036 137.571 388.041 137.595Z" fill="black"/>
<path d="M311.558 174.681C311.105 173.569 311.003 172.345 311.265 171.173C311.42 170.567 311.694 169.997 312.073 169.498C312.464 169.002 312.941 168.579 313.481 168.251C315.576 167.066 317.675 166.158 319.803 165.203C324.044 163.318 328.341 161.592 332.603 159.812C334.741 158.944 336.875 158.058 338.951 157.114C341.085 156.1 343.31 155.291 345.597 154.696C350.076 153.511 354.577 152.393 359.134 151.466C354.815 153.191 350.439 154.725 346.043 156.191C343.884 156.903 341.784 157.783 339.763 158.825C337.646 159.851 335.507 160.754 333.366 161.659C329.065 163.413 324.734 165.06 320.386 166.645C318.237 167.46 315.997 168.204 313.957 169.104C312.967 169.533 312.188 170.337 311.791 171.341C311.403 172.41 311.322 173.567 311.558 174.681Z" fill="black"/>
<path d="M416.881 198.5C419.251 198.647 421.563 199.288 423.67 200.383C425.804 201.406 427.844 202.611 429.769 203.987C431.686 205.361 433.519 206.849 435.257 208.444C436.988 210.037 438.642 211.699 440.268 213.398C439.334 212.683 438.438 211.926 437.523 211.191C436.62 210.445 435.748 209.654 434.824 208.94C433.011 207.471 431.172 206.034 429.274 204.685C427.382 203.333 425.413 202.093 423.376 200.969C422.36 200.406 421.308 199.908 420.229 199.478C419.159 199.011 418.034 198.682 416.881 198.5Z" fill="black"/>
<path d="M416.913 227.349C420.279 230.661 424.006 233.586 428.024 236.068C429.026 236.666 430.09 237.152 431.197 237.519C432.296 237.904 433.479 237.974 434.615 237.722C436.92 237.182 438.931 235.779 440.234 233.803C441.456 231.817 442.202 229.574 442.413 227.252C442.634 224.92 442.591 222.57 442.283 220.248C441.996 217.897 441.918 215.508 441.756 213.138C441.623 210.763 441.523 208.386 441.458 206.007C441.457 206.002 441.458 205.996 441.46 205.991C441.462 205.986 441.465 205.981 441.469 205.977C441.473 205.973 441.478 205.969 441.483 205.967C441.488 205.965 441.493 205.964 441.499 205.963C441.51 205.963 441.52 205.967 441.528 205.974C441.536 205.98 441.541 205.99 441.543 206C442.219 210.711 442.669 215.425 443.16 220.152C443.509 222.539 443.526 224.963 443.211 227.355C442.933 229.78 442.039 232.093 440.615 234.076C439.864 235.026 438.975 235.858 437.977 236.545C436.953 237.18 435.848 237.672 434.691 238.009C433.501 238.295 432.259 238.284 431.073 237.979C429.898 237.683 428.761 237.251 427.686 236.691C425.578 235.539 423.612 234.146 421.827 232.538C420.031 230.965 418.367 229.249 416.85 227.406C416.842 227.397 416.839 227.386 416.84 227.375C416.841 227.363 416.847 227.353 416.856 227.346C416.864 227.339 416.874 227.336 416.885 227.337C416.895 227.337 416.905 227.341 416.913 227.349Z" fill="black"/>
<path d="M419.698 192.756C419.365 190.611 419.172 188.446 419.122 186.276C419.049 184.1 419.118 181.922 419.329 179.756C419.515 177.568 419.97 175.41 420.682 173.333C421.05 172.282 421.573 171.292 422.234 170.396C422.563 169.946 422.978 169.566 423.456 169.279C423.934 168.992 424.465 168.803 425.017 168.724C424.003 169.052 423.152 169.751 422.633 170.681C422.087 171.58 421.676 172.555 421.413 173.573C420.87 175.633 420.506 177.735 420.323 179.857C420.095 181.985 419.994 184.131 419.888 186.28C419.835 187.356 419.806 188.433 419.787 189.512L419.698 192.756Z" fill="black"/>
<path d="M383.478 160.023C383.375 160.023 383.275 159.985 383.197 159.917C383.119 159.85 383.069 159.756 383.055 159.654C383.04 159.551 383.064 159.447 383.12 159.361C383.176 159.274 383.262 159.211 383.362 159.183C385.373 158.613 386.527 154.48 386.801 152.935C386.821 152.824 386.885 152.724 386.978 152.659C387.071 152.595 387.186 152.569 387.298 152.589C387.41 152.609 387.509 152.673 387.574 152.766C387.639 152.859 387.664 152.974 387.644 153.086C387.6 153.334 386.529 159.175 383.595 160.006C383.557 160.017 383.518 160.023 383.478 160.023Z" fill="black"/>
<path d="M439.079 235.471C439.229 237.903 439.319 240.335 439.377 242.766C439.454 245.198 439.488 247.63 439.497 250.062C439.497 250.122 439.484 250.18 439.46 250.235C439.435 250.289 439.399 250.337 439.354 250.376C436.986 252.456 434.424 254.305 431.704 255.899C430.33 256.699 428.861 257.323 427.332 257.757C426.55 257.979 425.724 258.002 424.931 257.824C424.539 257.724 424.181 257.524 423.89 257.243C423.599 256.963 423.386 256.612 423.271 256.224C423.423 256.574 423.659 256.881 423.958 257.118C424.257 257.354 424.61 257.513 424.986 257.58C425.738 257.669 426.501 257.58 427.213 257.321C428.668 256.816 430.054 256.131 431.339 255.282C433.954 253.616 436.449 251.767 438.803 249.748L438.661 250.062C438.67 247.63 438.704 245.198 438.781 242.766C438.839 240.335 438.929 237.903 439.079 235.471Z" fill="black"/>
<path d="M271.487 379.178C272.012 380.125 272.394 381.145 272.619 382.204C272.879 383.256 272.98 384.34 272.917 385.421C272.39 384.475 272.009 383.455 271.785 382.395C271.527 381.343 271.426 380.259 271.487 379.178Z" fill="black"/>
<path d="M297.113 378.379C297.666 379.084 298.089 379.882 298.361 380.736C298.664 381.58 298.813 382.471 298.798 383.367C298.243 382.664 297.82 381.865 297.55 381.01C297.248 380.166 297.1 379.275 297.113 378.379Z" fill="black"/>
<path d="M305.369 402.883C305.369 402.883 289.97 405.343 286.68 407.193C283.39 409.043 250.119 412.743 241.9 413.153C234.828 413.295 227.754 412.998 220.72 412.263C219.726 412.139 218.794 411.713 218.05 411.043C216.45 409.553 215.909 406.733 228.76 403.903C234.884 402.463 240.865 400.471 246.63 397.953C248.11 398.993 249.57 399.693 250.93 400.513C251.609 400.892 252.263 401.313 252.89 401.773C253.541 402.273 254.129 402.851 254.64 403.493C254.717 402.55 254.439 401.612 253.86 400.863C253.313 400.109 252.606 399.484 251.79 399.033C251.018 398.579 250.177 398.254 249.3 398.073C248.433 397.858 247.532 397.817 246.65 397.953C250.09 396.493 253.45 394.933 256.57 393.393C257.1 393.933 257.52 394.413 257.95 394.893L259.14 396.333L260.32 397.823C260.749 398.379 261.217 398.904 261.72 399.393C261.818 398.657 261.746 397.908 261.51 397.203C261.288 396.497 260.935 395.839 260.47 395.263C260.006 394.672 259.424 394.185 258.76 393.833C258.098 393.449 257.328 393.295 256.57 393.393C265.35 389.053 272.369 384.833 274.77 383.363C279.49 380.493 281.96 380.693 284.21 383.363C285.399 384.653 287.027 385.453 288.774 385.606C290.522 385.76 292.264 385.256 293.659 384.193C299.21 380.493 303.11 383.983 303.32 385.423C303.52 386.863 308.04 395.283 305.369 402.883Z" fill="black"/>
<path d="M370.809 379.964C371.528 381.607 372.021 383.34 372.277 385.116C372.415 385.993 372.507 386.877 372.555 387.764C372.614 388.666 372.588 389.571 372.478 390.469C372.094 389.65 371.789 388.797 371.566 387.921C371.336 387.063 371.151 386.194 371.01 385.317C370.703 383.55 370.635 381.749 370.809 379.964Z" fill="black"/>
<path d="M395.639 381.941C396.088 383.26 396.305 384.648 396.281 386.041C396.279 386.727 396.232 387.412 396.14 388.092C396.055 388.792 395.887 389.481 395.639 390.142C395.391 389.481 395.223 388.793 395.138 388.092C395.046 387.412 394.999 386.727 394.998 386.041C394.973 384.648 395.19 383.26 395.639 381.941Z" fill="black"/>
<path d="M400.17 417.593C400.17 417.593 385.48 421.173 378.13 425.313C370.78 429.463 355.52 435.393 338.01 430.313C338.01 430.313 334.33 430.023 358.07 408.833C358.07 408.833 358.69 407.963 359.7 406.573C362.61 406.543 365.45 406.373 368.26 406.493C369.651 406.532 371.034 406.71 372.39 407.023C373.761 407.285 374.995 408.026 375.87 409.113C375.656 408.383 375.236 407.73 374.66 407.233C374.076 406.739 373.413 406.347 372.7 406.073C371.297 405.547 369.817 405.257 368.32 405.213C366.851 405.163 365.381 405.253 363.93 405.483C362.484 405.691 361.065 406.056 359.7 406.573C361.18 404.543 363.52 401.413 366 398.343C369.11 397.907 372.25 397.726 375.39 397.803C376.928 397.885 378.456 398.092 379.96 398.423C381.476 398.821 382.947 399.374 384.35 400.073C383.185 398.923 381.787 398.036 380.25 397.473C378.702 396.933 377.086 396.613 375.45 396.523C373.825 396.468 372.199 396.588 370.6 396.883C369.013 397.163 367.469 397.65 366.01 398.333C369.94 393.473 374.24 388.773 376.15 388.773C379.69 388.773 383.679 391.263 388.32 394.813C389.105 395.45 389.837 396.149 390.51 396.903C391.29 397.743 390.72 398.603 394.23 390.463C394.23 390.463 398.76 382.843 400.17 417.593Z" fill="black"/>
<path d="M360.487 359.669C355.48 359.789 350.473 359.852 345.467 359.858C338.235 359.892 331.012 359.832 323.788 359.746C316.565 359.627 309.342 359.49 302.119 359.25C300.056 359.19 298.002 359.122 295.939 359.036L295.571 357.966C297.762 357.941 299.945 357.923 302.136 357.923C309.359 357.889 316.591 357.949 323.814 358.035C331.037 358.146 338.261 358.283 345.484 358.522C350.465 358.668 355.449 358.871 360.435 359.13L360.487 359.669Z" fill="black"/>
<path d="M360.44 359.134L295.57 357.964L287.36 333.984C289.68 334.044 292.01 334.084 294.34 334.124C302.43 334.263 310.51 334.294 318.61 334.314C326.7 334.294 334.79 334.264 342.869 334.124C348.179 334.044 353.486 333.92 358.79 333.753C358.78 333.553 358.77 333.364 358.75 333.153C353.46 332.983 348.166 332.86 342.869 332.783C334.79 332.653 326.7 332.613 318.61 332.603C310.51 332.613 302.43 332.653 294.34 332.783C291.89 332.823 289.44 332.863 287 332.923L280.42 313.733C283.37 313.873 286.31 313.993 289.26 314.083C296.28 314.343 303.31 314.493 310.33 314.633C317.36 314.733 324.39 314.823 331.41 314.803C337.17 314.803 349.63 314.733 357.82 314.603C357.81 314.493 357.81 314.383 357.81 314.263C349.64 313.913 337.19 313.663 331.43 313.473C324.41 313.213 317.39 313.063 310.36 312.923C303.33 312.823 296.31 312.743 289.28 312.763C286.23 312.763 283.17 312.773 280.12 312.823L280.31 313.403L270.86 285.803C270.86 285.803 336.84 291.433 356.31 277.583L360.44 359.134Z" fill="black"/>
<path d="M413.599 334.737C416.724 334.776 419.823 334.785 422.88 334.583C424.393 334.492 425.898 334.304 427.387 334.022C428.81 333.801 430.177 333.312 431.417 332.58C431.956 332.256 432.404 331.802 432.721 331.259C432.861 330.992 432.963 330.706 433.024 330.411L433.234 329.288C433.519 327.787 433.703 326.262 433.909 324.735C434.28 321.675 434.553 318.588 434.844 315.475C435.282 318.578 435.436 321.715 435.305 324.846C435.262 326.417 435.106 327.984 434.912 329.553L434.727 330.727C434.64 331.195 434.488 331.648 434.274 332.073C433.83 332.892 433.184 333.583 432.398 334.081C431.673 334.537 430.89 334.891 430.07 335.135C429.291 335.383 428.492 335.569 427.683 335.69C426.105 335.922 424.51 336.018 422.915 335.978C419.772 335.925 416.646 335.509 413.599 334.737Z" fill="white"/>
<path d="M490.27 258.724C490.91 262.384 466.15 325.044 463.56 335.294C460.98 345.554 443.97 358.894 443.97 358.894C434.06 366.684 401.33 362.924 401.33 362.924L397.02 278.844C401.619 278.924 406.23 278.954 410.83 278.994C413.15 278.984 415.4 279.034 417.77 278.964C420.172 278.871 422.537 278.342 424.75 277.404C429.244 275.488 432.9 272.021 435.05 267.634C435.563 266.561 436.013 265.459 436.4 264.334L437.61 261.114C438.42 258.964 439.23 256.824 440.08 254.694C441.78 250.444 443.53 246.204 445.57 242.174C446.09 241.174 446.63 240.194 447.21 239.264C447.728 238.375 448.356 237.555 449.08 236.824C449.207 236.701 449.348 236.593 449.5 236.504C449.55 236.494 449.6 236.444 449.61 236.464C449.63 236.464 449.63 236.454 449.65 236.444L449.89 236.424L451.59 236.294L455.01 236.074C459.58 235.844 464.16 235.734 468.7 235.944C470.952 236.025 473.196 236.249 475.42 236.614C476.492 236.793 477.546 237.068 478.57 237.434C479.447 237.685 480.213 238.228 480.74 238.974L480.76 239.004C480.826 239.139 480.922 239.259 481.04 239.354C482.016 240.189 482.836 241.191 483.46 242.314C484.12 243.473 484.595 244.728 484.87 246.034C485.435 248.708 485.404 251.473 484.78 254.134C484.61 254.804 484.48 255.484 484.28 256.154C484.07 256.814 483.88 257.484 483.65 258.144C483.2 259.474 482.73 260.794 482.23 262.114C481.25 264.744 480.21 267.364 479.15 269.974C477.03 275.184 474.79 280.354 472.49 285.494L465.46 300.864C463.08 305.974 460.76 311.107 458.5 316.264C456.24 321.414 453.99 326.604 451.92 331.854C449.81 337.084 447.9 342.424 446.01 347.704C445.048 350.325 443.916 352.881 442.619 355.354C441.961 356.577 441.198 357.741 440.34 358.834C439.51 359.94 438.457 360.86 437.25 361.534C437.236 361.539 437.223 361.547 437.212 361.558C437.201 361.569 437.192 361.581 437.187 361.595C437.181 361.61 437.178 361.625 437.179 361.64C437.179 361.655 437.183 361.67 437.19 361.684C437.201 361.713 437.223 361.736 437.251 361.749C437.279 361.762 437.31 361.764 437.34 361.754C438.664 361.174 439.843 360.306 440.79 359.214C441.742 358.149 442.602 357.005 443.36 355.794C444.866 353.375 446.164 350.832 447.24 348.194C449.36 342.944 451.51 337.774 453.7 332.594C455.91 327.414 458.17 322.274 460.46 317.124C462.73 311.964 464.926 306.774 467.05 301.554L473.39 285.884L479.83 270.254L483.03 262.424C484.153 259.81 485.108 257.128 485.89 254.394C486.653 251.575 486.8 248.624 486.32 245.744C486.064 244.278 485.588 242.858 484.91 241.534C484.259 240.233 483.378 239.061 482.31 238.074C481.999 237.482 481.55 236.974 481 236.594C480.47 236.215 479.896 235.903 479.29 235.664C478.258 235.256 477.195 234.935 476.11 234.704C476.61 230.766 476.881 226.803 476.92 222.834C477.01 220.764 476.87 218.694 476.79 216.624C476.73 214.544 476.44 212.484 476.21 210.414C476.11 209.374 475.9 208.354 475.7 207.324C475.48 206.304 475.34 205.274 475.06 204.264L474.2 201.234C473.87 200.244 473.46 199.264 473.08 198.294C472.67 197.324 472.15 196.394 471.68 195.454L470.8 194.134L470.36 193.474L469.84 192.874C469.169 192.051 468.388 191.324 467.52 190.714C466.677 190.078 465.686 189.669 464.64 189.524C465.131 189.666 465.597 189.886 466.02 190.174L466.65 190.604L467.22 191.104C467.955 191.786 468.6 192.558 469.14 193.404L469.57 194.014L469.93 194.684L470.65 196.004C471.01 196.954 471.46 197.854 471.79 198.804C473.072 202.653 473.957 206.624 474.43 210.654C474.69 212.684 474.99 214.694 475.09 216.744C475.27 218.774 475.44 220.814 475.52 222.864C475.77 226.794 475.8 230.734 476.03 234.694C475.954 234.672 475.877 234.656 475.8 234.644C473.496 234.193 471.164 233.899 468.82 233.764C464.17 233.484 459.53 233.514 454.9 233.684L451.43 233.844L449.69 233.954L449.5 233.964C449.38 233.984 449.24 234.004 449.11 234.024C448.867 234.072 448.631 234.153 448.41 234.264C448.055 234.443 447.725 234.668 447.43 234.934C446.498 235.808 445.697 236.812 445.05 237.914C444.41 238.934 443.85 239.964 443.31 241.004C441.228 245.162 439.379 249.431 437.77 253.794C436.95 255.964 436.15 258.124 435.39 260.304L434.26 263.574C433.933 264.636 433.542 265.678 433.09 266.694C432.179 268.683 430.923 270.494 429.38 272.044C427.823 273.592 426.01 274.857 424.02 275.784C422.025 276.74 419.874 277.326 417.67 277.514C415.44 277.684 413.09 277.734 410.81 277.854C406.21 278.084 401.61 278.314 397.01 278.604L396.98 277.994C396.98 277.994 422.27 278.384 423.27 256.224C423.27 256.224 422.64 263.204 439.08 250.064V235.474C439.08 235.474 444.8 232.504 442.6 219.254L441.5 206.004H442.58C442.58 206.004 442.6 186.674 441.56 184.674C473.69 187.104 476.7 191.554 476.7 191.554C489.19 205.974 487.25 238.634 487.25 238.634C496.29 239.854 490.27 258.724 490.27 258.724Z" fill="black"/>
<path d="M397.02 278.844C396.987 278.841 396.957 278.826 396.934 278.802C396.912 278.778 396.9 278.746 396.9 278.714C396.9 278.684 396.912 278.657 396.932 278.636C396.953 278.615 396.98 278.604 397.01 278.604L397.02 278.844Z" fill="white"/>
<path d="M429.453 362.911C430.114 367.351 430.645 371.795 431.186 376.238L431.934 382.905L432.58 389.575C432.787 391.799 433.12 394.019 433.412 396.24C433.696 398.456 433.771 400.693 433.634 402.922C433.5 405.173 433.231 407.414 432.829 409.633C432.431 411.936 431.805 414.195 430.96 416.374C430.933 416.441 430.888 416.498 430.829 416.539C430.769 416.58 430.7 416.603 430.628 416.605C430.556 416.607 430.485 416.588 430.423 416.551C430.362 416.513 430.313 416.458 430.282 416.393C429.316 414.265 428.564 412.045 428.038 409.768C427.511 407.575 427.116 405.353 426.855 403.113C426.593 400.895 426.541 398.657 426.701 396.429C426.867 394.195 427.074 391.96 427.156 389.728L427.425 383.033L427.796 376.334C428.086 371.867 428.365 367.4 428.775 362.93C428.783 362.847 428.821 362.769 428.882 362.712C428.943 362.655 429.022 362.622 429.106 362.62C429.189 362.617 429.271 362.646 429.335 362.699C429.399 362.753 429.441 362.828 429.453 362.911V362.911Z" fill="black"/>
<path d="M459.216 343.451C459.712 347.604 460.077 351.753 460.453 355.902L460.952 362.124L461.35 368.343C461.475 370.416 461.725 372.489 461.934 374.562C462.136 376.63 462.128 378.712 461.908 380.778C461.69 382.869 461.338 384.945 460.854 386.991C460.368 389.132 459.658 391.216 458.737 393.208L458.734 393.213C458.703 393.277 458.655 393.331 458.595 393.369C458.535 393.406 458.465 393.426 458.394 393.425C458.324 393.425 458.254 393.404 458.195 393.366C458.135 393.327 458.088 393.272 458.058 393.208C457.174 391.21 456.504 389.124 456.061 386.984C455.616 384.931 455.304 382.851 455.126 380.758C454.947 378.685 454.979 376.6 455.22 374.533C455.47 372.459 455.76 370.386 455.925 368.312L456.442 362.091L457.062 355.873C457.518 351.728 457.962 347.584 458.538 343.443C458.55 343.361 458.591 343.285 458.654 343.231C458.717 343.177 458.797 343.147 458.881 343.148C458.964 343.149 459.044 343.181 459.106 343.236C459.167 343.292 459.207 343.368 459.216 343.451L459.216 343.451Z" fill="black"/>
<path d="M279.74 249.573V249.793C279.73 249.723 279.72 249.643 279.71 249.573H279.74Z" fill="white"/>
<path d="M365.355 177.636C366.779 177.102 368.225 176.557 369.708 176.028C371.193 175.502 372.664 174.944 374.188 174.434L378.744 172.875C380.283 172.387 381.816 171.887 383.358 171.435L383.381 171.428C383.477 171.4 383.58 171.411 383.668 171.459C383.756 171.507 383.822 171.589 383.85 171.685L383.859 171.725L384.655 176.185C384.906 177.675 385.219 179.151 385.507 180.633C386.113 183.591 386.804 186.53 387.523 189.464C387.54 189.537 387.53 189.614 387.493 189.679C387.457 189.744 387.397 189.793 387.325 189.816L387.305 189.822C384.503 190.709 381.687 191.545 378.867 192.367C376.049 193.195 373.229 194.022 370.394 194.789L370.387 194.791C370.254 194.826 370.113 194.809 369.993 194.741C369.873 194.673 369.784 194.561 369.746 194.429C368.931 191.594 368.192 188.745 367.443 185.931L365.355 177.636ZM365.443 177.682L368.207 186.009C369.077 188.736 369.955 191.428 370.757 194.134L370.11 193.774C372.931 192.956 375.769 192.198 378.608 191.442C381.444 190.68 384.285 189.93 387.14 189.233L386.923 189.591C386.394 186.617 385.836 183.649 385.194 180.699C384.859 179.227 384.547 177.75 384.174 176.286L383.098 171.886L383.598 172.175C382.127 172.699 380.647 173.174 379.173 173.662L374.689 175.03C373.2 175.496 371.658 175.913 370.13 176.363L365.443 177.682Z" fill="black"/>
<path d="M318.966 222.744L335.212 222.029L338.132 236.656H320.878L318.966 222.744Z" fill="black"/>
<path d="M289.415 183.074L291.168 188.739C291.704 190.564 292.219 192.35 292.652 194.173L292.225 193.841C294.472 193.886 296.718 194.047 298.965 194.107C301.211 194.162 303.458 194.098 305.704 194.009L305.44 194.344C304.904 192.492 304.394 190.634 303.908 188.77C303.438 186.902 302.929 185.043 302.489 183.168L303.009 183.577C300.809 183.584 298.616 183.503 296.37 183.408L289.415 183.074ZM289.336 183.012C291.473 182.901 293.712 182.771 296.013 182.678C298.312 182.582 300.664 182.502 303.009 182.509C303.128 182.509 303.245 182.55 303.339 182.624C303.433 182.699 303.499 182.802 303.528 182.918C303.987 184.789 304.377 186.676 304.805 188.554C305.221 190.435 305.608 192.323 305.969 194.218L305.973 194.241C305.979 194.274 305.979 194.309 305.972 194.343C305.965 194.377 305.952 194.409 305.932 194.438C305.913 194.466 305.888 194.491 305.859 194.51C305.83 194.529 305.798 194.542 305.764 194.548C305.744 194.552 305.724 194.553 305.704 194.553C303.458 194.464 301.211 194.4 298.965 194.455C296.718 194.516 294.472 194.676 292.225 194.721C292.13 194.723 292.036 194.693 291.959 194.635C291.883 194.578 291.828 194.496 291.802 194.404L291.799 194.389C291.281 192.466 290.846 190.506 290.433 188.585C290.045 186.669 289.667 184.785 289.336 183.012Z" fill="black"/>
<path d="M309.941 184.677C312.208 184.323 314.501 184.156 316.796 184.177C319.091 184.153 321.384 184.32 323.651 184.677C321.384 185.033 319.091 185.2 316.796 185.176C314.501 185.198 312.208 185.031 309.941 184.677Z" fill="black"/>
<path d="M311.29 192.756C313.33 192.402 315.399 192.235 317.47 192.256C319.542 192.233 321.611 192.4 323.651 192.756C321.611 193.112 319.542 193.279 317.47 193.255C315.399 193.277 313.33 193.11 311.29 192.756Z" fill="black"/>
<path d="M294.279 200.561C296.898 200.355 299.517 200.258 302.136 200.178C304.755 200.087 307.373 200.074 309.992 200.062C312.611 200.073 315.23 200.086 317.849 200.177L321.777 200.316C323.087 200.399 324.396 200.448 325.705 200.561C324.396 200.675 323.087 200.723 321.777 200.806L317.849 200.946C315.23 201.036 312.611 201.05 309.992 201.061C307.373 201.048 304.755 201.035 302.136 200.944C299.517 200.864 296.898 200.767 294.279 200.561Z" fill="black"/>
<path d="M296.423 206.004C298.863 205.798 301.303 205.701 303.744 205.621C306.184 205.53 308.624 205.517 311.064 205.504C313.504 205.516 315.945 205.529 318.385 205.619L322.045 205.759C323.265 205.842 324.485 205.891 325.705 206.004C324.485 206.117 323.265 206.166 322.045 206.249L318.385 206.389C315.945 206.479 313.504 206.493 311.064 206.504C308.624 206.491 306.184 206.478 303.744 206.387C301.303 206.307 298.863 206.21 296.423 206.004Z" fill="black"/>
<path d="M309.941 211.961C313.447 211.606 316.97 211.44 320.493 211.461C324.017 211.437 327.54 211.604 331.046 211.961C327.54 212.318 324.017 212.485 320.493 212.461C316.97 212.482 313.447 212.315 309.941 211.961Z" fill="black"/>
<path d="M316.796 217.866C319.852 217.512 322.927 217.345 326.004 217.366C329.081 217.343 332.156 217.51 335.212 217.866C332.156 218.223 329.081 218.39 326.004 218.366C322.927 218.387 319.852 218.221 316.796 217.866Z" fill="black"/>
<path d="M338.132 183.043C344.83 181.177 351.692 179.959 358.622 179.405C355.283 180.36 351.895 181.131 348.471 181.715C345.051 182.344 341.6 182.788 338.132 183.043Z" fill="black"/>
<path d="M339.673 190.496C343.103 189.466 346.584 188.616 350.104 187.952C353.614 187.242 357.16 186.72 360.726 186.388C357.297 187.421 353.815 188.27 350.295 188.933C346.784 189.64 343.238 190.162 339.673 190.496Z" fill="black"/>
<path d="M343.883 198.501C347.031 197.454 350.236 196.586 353.482 195.903C356.719 195.175 359.995 194.633 363.294 194.281C360.146 195.33 356.942 196.198 353.695 196.879C350.458 197.605 347.182 198.146 343.883 198.501Z" fill="black"/>
<path d="M346.04 205.95C349.659 204.952 353.302 204.061 356.948 203.186C360.591 202.3 364.251 201.491 367.912 200.682C371.577 199.897 375.243 199.113 378.925 198.405L384.449 197.346C386.298 197.029 388.14 196.679 389.996 196.391C388.188 196.9 386.367 197.346 384.553 197.825L379.089 199.157C375.445 200.042 371.785 200.851 368.124 201.659C364.458 202.443 360.793 203.227 357.11 203.934C353.43 204.653 349.747 205.355 346.04 205.95Z" fill="black"/>
<path d="M348.377 213.398C351.26 212.58 354.165 211.87 357.074 211.175C359.98 210.469 362.902 209.841 365.825 209.212C368.752 208.607 371.68 208.004 374.624 207.476L379.04 206.688C380.52 206.462 381.992 206.201 383.479 206.004C382.039 206.423 380.587 206.779 379.141 207.168L374.782 208.229C371.876 208.934 368.954 209.563 366.031 210.19C363.103 210.794 360.175 211.398 357.231 211.924C354.29 212.462 351.345 212.984 348.377 213.398Z" fill="black"/>
<path d="M350.199 220.639C352.691 219.974 355.203 219.417 357.718 218.876C360.23 218.324 362.757 217.849 365.284 217.375C367.815 216.923 370.346 216.474 372.891 216.101L376.71 215.545C377.989 215.396 379.262 215.213 380.547 215.093C379.303 215.436 378.048 215.715 376.798 216.028L373.03 216.858C370.517 217.409 367.99 217.885 365.463 218.358C362.932 218.808 360.401 219.257 357.855 219.629C355.312 220.013 352.766 220.38 350.199 220.639Z" fill="black"/>
<path d="M351.586 226.435C354.311 225.809 357.052 225.291 359.795 224.79C362.537 224.278 365.291 223.843 368.045 223.408C370.802 222.997 373.56 222.589 376.33 222.256L380.485 221.761C381.875 221.632 383.26 221.469 384.656 221.37C383.295 221.693 381.924 221.952 380.559 222.245L376.446 223.016C373.704 223.528 370.95 223.963 368.196 224.396C365.439 224.806 362.681 225.215 359.911 225.547C357.143 225.89 354.373 226.217 351.586 226.435Z" fill="black"/>
<path d="M353.589 233.832C356.588 233.116 359.606 232.508 362.627 231.916C365.645 231.313 368.677 230.788 371.709 230.263C374.745 229.761 377.781 229.262 380.83 228.838L385.404 228.207C386.935 228.033 388.46 227.824 389.996 227.68C388.498 228.048 386.989 228.352 385.486 228.69L380.958 229.597C377.939 230.199 374.907 230.725 371.875 231.248C368.839 231.749 365.803 232.249 362.754 232.671C359.707 233.105 356.657 233.522 353.589 233.832Z" fill="black"/>
</svg>
