<svg width="700" height="550" viewBox="0 0 700 550" fill="none" xmlns="http://www.w3.org/2000/svg">
<path d="M359.006 60.0967C352.817 61.7393 347.003 64.5614 341.883 68.4078C336.735 72.3176 332.367 77.1608 329.009 82.6849C325.671 88.1864 323.183 94.161 321.63 100.406C320.007 106.589 319.286 112.974 319.491 119.364C319.491 119.364 296.197 104.861 281.252 119.364C281.252 119.364 291.614 71.1455 359.006 60.0967Z" fill="black"/>
<path d="M365.335 81.8603L365.296 85.6185L365.158 89.3668C364.972 94.3712 364.619 99.3657 364.197 104.36C363.745 109.365 363.215 114.366 362.607 119.363C362.607 119.363 335.75 96.0785 319.491 119.363C319.74 116.209 320.182 113.073 320.816 109.973C321.424 106.882 322.19 103.82 323.092 100.818C324.005 97.8197 325.093 94.8775 326.35 92.0064C327.582 89.1357 329.032 86.3638 330.687 83.7149C333.924 78.372 338.026 73.6037 342.825 69.6046C345.238 67.6037 347.818 65.8145 350.538 64.2569C353.265 62.6709 356.101 61.2806 359.025 60.0963C359.035 60.0963 359.035 60.0866 359.045 60.0866C360.713 59.8118 362.421 59.5665 364.157 59.3408C364.677 64.3648 365.119 69.3495 365.256 74.3538C365.325 75.6098 365.286 76.8658 365.325 78.112C365.354 79.3581 365.374 80.6142 365.335 81.8603Z" fill="black"/>
<path d="M405.841 109.914C406.655 113.024 407.303 116.174 407.813 119.363C407.813 119.363 387.266 96.9517 362.607 119.363C363.972 114.499 365.011 109.549 365.717 104.547C366.44 99.5398 366.908 94.4995 367.121 89.4453C367.319 84.3832 367.207 79.3138 366.787 74.2654C366.36 69.2217 365.48 64.2266 364.157 59.3408C364.932 59.2426 365.717 59.1445 366.502 59.0562C372.501 61.3257 378.057 64.6265 382.919 68.8097C385.327 70.8791 387.546 73.158 389.552 75.6195C391.588 78.0568 393.432 80.6485 395.066 83.3714C398.361 88.8403 401.052 94.6505 403.093 100.7C404.133 103.732 405.049 106.803 405.841 109.914Z" fill="black"/>
<path d="M451.743 119.354C451.095 118.951 419.99 99.356 407.813 119.364C407.524 112.878 406.426 106.453 404.545 100.239C402.728 93.9647 400.106 87.9521 396.744 82.3512C393.369 76.7193 389.02 71.7323 383.9 67.6227C378.775 63.5632 372.845 60.6429 366.502 59.0564C367.513 58.9289 368.543 58.8209 369.584 58.7228C369.584 58.7228 431.529 57.8495 451.743 119.354Z" fill="black"/>
<path d="M364.393 190.219C362.949 190.696 361.6 191.423 360.409 192.368C360.409 190.415 360.468 188.472 360.556 186.529C360.733 183.478 360.87 180.75 360.86 177.796C360.86 174.892 360.811 171.968 360.743 169.044C360.625 163.196 360.605 157.328 360.733 151.46C360.86 145.592 361.083 139.718 361.4 133.837C361.714 127.949 362.126 122.072 362.833 116.174C362.837 116.135 362.849 116.097 362.868 116.062C362.887 116.027 362.913 115.997 362.944 115.972C362.975 115.947 363.011 115.929 363.049 115.918C363.087 115.908 363.127 115.905 363.166 115.909C363.229 115.918 363.288 115.947 363.333 115.991C363.379 116.035 363.41 116.092 363.421 116.155C364.403 122.023 365.04 127.89 365.541 133.768C366.041 139.646 366.414 145.533 366.62 151.421C366.836 157.308 366.82 163.205 366.571 169.112C366.434 172.066 366.277 175.019 366.071 177.993C365.884 180.927 365.551 184.057 365.256 186.863C365.158 187.913 365.07 188.973 365.011 190.023C364.795 190.091 364.589 190.15 364.393 190.219Z" fill="black"/>
<path d="M392.093 213.965C391.559 217.068 389.972 219.893 387.599 221.962C384.985 223.867 381.743 224.706 378.533 224.308C375.316 224.131 372.224 223 369.652 221.06C367.155 219.034 365.194 216.426 363.941 213.465C363.197 211.787 362.593 210.051 362.136 208.274C362.536 208.226 362.94 208.213 363.343 208.235C364.206 208.284 365.119 208.333 365.953 208.372C366.248 209.65 366.632 210.906 367.101 212.13C368.01 214.671 369.522 216.954 371.507 218.783C373.565 220.532 376.095 221.631 378.778 221.943C381.444 222.468 384.209 221.955 386.51 220.51C388.707 218.793 390.251 216.376 390.886 213.661C391.656 210.871 391.977 207.976 391.838 205.085V205.066C391.834 204.99 391.861 204.915 391.911 204.858C391.962 204.801 392.032 204.767 392.108 204.761C392.184 204.756 392.259 204.781 392.317 204.831C392.375 204.88 392.411 204.95 392.417 205.026C392.79 208.004 392.681 211.022 392.093 213.965Z" fill="black"/>
<path d="M321.818 160.051C323.817 162.789 313.773 168.722 313.773 168.722C299.717 156.741 314.464 143.377 314.464 143.377C328.519 132.086 339.118 145.796 339.118 145.796C339.118 145.796 331.514 154.782 325.524 153.745C325.524 153.745 321.837 150.686 321.031 153.829C320.687 154.859 320.58 155.952 320.716 157.029C320.853 158.106 321.229 159.139 321.818 160.051Z" fill="black"/>
<path d="M325.408 164.229C326.176 165.203 326.766 166.177 327.441 167.081C328.08 168.023 328.873 168.85 329.786 169.529C329.147 169.53 328.522 169.336 327.997 168.971C327.474 168.616 327.018 168.172 326.649 167.659C326.287 167.158 325.995 166.611 325.78 166.031C325.552 165.457 325.427 164.847 325.408 164.229Z" fill="black"/>
<path d="M332.321 153.285C332.715 153.006 333.155 152.799 333.622 152.674C334.076 152.542 334.545 152.465 335.018 152.446C335.499 152.427 335.98 152.477 336.446 152.595C336.93 152.705 337.375 152.944 337.736 153.285L335.054 153.426C334.14 153.48 333.224 153.432 332.321 153.285Z" fill="black"/>
<path d="M335.547 157.355C335.795 157.347 336.031 157.242 336.204 157.062C336.377 156.883 336.474 156.644 336.474 156.395C336.474 156.146 336.377 155.907 336.204 155.728C336.031 155.549 335.795 155.444 335.547 155.435C335.298 155.444 335.062 155.549 334.889 155.728C334.716 155.907 334.619 156.146 334.619 156.395C334.619 156.644 334.716 156.883 334.889 157.062C335.062 157.242 335.298 157.347 335.547 157.355Z" fill="black"/>
<path d="M339.118 145.796C339.247 147.224 339.349 148.654 339.422 150.086C339.487 151.522 339.575 152.946 339.504 154.407C339.491 154.598 339.468 154.788 339.434 154.976C339.411 155.073 339.342 155.241 339.344 155.276C339.344 155.292 339.339 155.308 339.329 155.322L339.341 155.411C339.419 155.718 339.552 156.009 339.735 156.267C340.126 156.849 340.561 157.4 341.034 157.915C341.28 158.199 341.492 158.389 341.78 158.733C342.055 159.086 342.19 159.53 342.158 159.977C342.12 160.203 342.035 160.418 341.91 160.61C341.784 160.801 341.619 160.964 341.427 161.088C341.098 161.311 340.737 161.485 340.358 161.603L340.628 161.192C340.882 163.274 340.769 165.384 340.296 167.427C340.062 168.504 339.558 169.504 338.832 170.333C338.62 170.525 338.389 170.703 338.164 170.885C337.909 171.027 337.647 171.154 337.378 171.266C336.849 171.415 336.306 171.504 335.758 171.533C333.792 171.688 331.888 172.293 330.193 173.299C328.521 174.344 327.15 175.806 326.213 177.54C325.978 177.969 325.766 178.41 325.578 178.861C325.414 179.305 325.307 179.768 325.259 180.239C325.171 181.192 325.31 182.152 325.665 183.041C326.452 184.889 327.291 186.771 328.129 188.622C328.972 190.477 329.834 192.324 330.713 194.163C331.157 195.08 331.612 195.991 332.095 196.888C332.339 197.334 332.589 197.777 332.853 198.212C333.084 198.664 333.414 199.059 333.819 199.368C333.389 199.086 333.028 198.712 332.762 198.273C332.462 197.857 332.188 197.424 331.919 196.989C331.387 196.115 330.881 195.226 330.388 194.331C329.396 192.543 328.478 190.716 327.573 188.885C326.669 187.046 325.784 185.229 324.911 183.349C324.485 182.343 324.312 181.247 324.407 180.159C324.456 179.613 324.574 179.075 324.759 178.559C324.956 178.066 325.181 177.584 325.431 177.115C326.426 175.23 327.892 173.635 329.688 172.487C331.502 171.376 333.56 170.726 335.683 170.595C336.153 170.578 336.619 170.51 337.075 170.393C337.269 170.295 337.479 170.228 337.666 170.116L338.182 169.7C338.807 168.986 339.243 168.127 339.45 167.202C339.902 165.261 340.041 163.261 339.86 161.277L339.859 161.251C339.853 161.165 339.877 161.08 339.927 161.01C339.976 160.94 340.048 160.889 340.131 160.865C340.758 160.686 341.392 160.351 341.461 159.887C341.481 159.612 341.401 159.34 341.236 159.12C341.072 158.91 340.771 158.595 340.557 158.33C340.079 157.775 339.644 157.184 339.256 156.563C339.036 156.229 338.886 155.854 338.815 155.46L338.807 155.28C338.823 155.209 338.843 155.138 338.867 155.069L338.937 154.856C338.971 154.693 338.996 154.528 339.013 154.362C339.152 152.965 339.145 151.52 339.155 150.093L339.118 145.796Z" fill="black"/>
<path d="M313.773 168.722C313.183 171.79 312.108 174.745 310.589 177.474C309.834 178.861 308.901 180.143 307.815 181.289C306.762 182.495 305.327 183.305 303.75 183.584C305.14 182.97 306.345 182.003 307.245 180.779C308.18 179.59 309.013 178.324 309.734 176.994C310.489 175.674 311.157 174.3 311.826 172.92L313.773 168.722Z" fill="black"/>
<path d="M336.353 163.768C337.052 163.747 337.75 163.825 338.427 164C338.74 164.078 339.042 164.138 339.339 164.206C339.658 164.291 339.992 164.299 340.315 164.229C340.24 164.427 340.114 164.6 339.948 164.73C339.783 164.861 339.585 164.944 339.376 164.971C338.991 165.05 338.594 165.045 338.212 164.956C337.469 164.799 336.808 164.377 336.353 163.768Z" fill="black"/>
<path d="M337.018 238.292C335.242 240.578 333.908 242.226 333.319 242.805C330.248 245.798 321.151 246.259 315.735 241.991C310.319 237.732 305.883 223.377 305.883 223.377C305.883 223.377 312.87 215.409 320.916 215.537L327.019 225.751C327.019 225.751 333.005 220.364 336.743 216.4C338.147 212.357 336.91 205.528 336.066 201.868C335.898 201.136 335.477 200.486 334.878 200.032C334.279 199.579 333.54 199.35 332.789 199.385C331.298 199.454 329.414 199.582 327.657 199.719C326.335 199.825 325.017 199.462 323.936 198.694C322.854 197.926 322.077 196.802 321.74 195.519C318.895 184.314 303.754 183.587 303.754 183.587C283.707 195.794 291.655 214.114 292.234 227.478C292.803 240.843 288.309 244.876 288.309 244.876L341.826 245.337C339.602 243.479 337.938 241.04 337.018 238.292ZM319.111 209.08C319.492 209.094 319.853 209.255 320.118 209.529C320.383 209.804 320.531 210.17 320.531 210.552C320.531 210.933 320.383 211.3 320.118 211.575C319.853 211.849 319.492 212.01 319.111 212.024C318.729 212.01 318.368 211.849 318.103 211.575C317.838 211.3 317.69 210.933 317.69 210.552C317.69 210.17 317.838 209.804 318.103 209.529C318.368 209.255 318.729 209.094 319.111 209.08ZM313.459 210.846C313.84 210.86 314.201 211.021 314.466 211.295C314.731 211.57 314.879 211.937 314.879 212.318C314.879 212.7 314.731 213.066 314.466 213.341C314.201 213.615 313.84 213.776 313.459 213.79C313.077 213.776 312.716 213.615 312.451 213.341C312.186 213.066 312.038 212.7 312.038 212.318C312.038 211.937 312.186 211.57 312.451 211.295C312.716 211.021 313.077 210.86 313.459 210.846H313.459ZM308.16 213.201C308.541 213.215 308.902 213.376 309.167 213.65C309.432 213.925 309.58 214.292 309.58 214.673C309.58 215.055 309.432 215.421 309.167 215.696C308.902 215.97 308.541 216.131 308.16 216.145C307.779 216.131 307.417 215.97 307.152 215.696C306.888 215.421 306.74 215.055 306.74 214.673C306.74 214.292 306.888 213.925 307.153 213.65C307.417 213.376 307.779 213.215 308.16 213.201H308.16ZM302.979 217.087C303.36 217.101 303.721 217.262 303.986 217.536C304.251 217.811 304.399 218.177 304.399 218.559C304.399 218.94 304.251 219.307 303.986 219.582C303.721 219.856 303.36 220.017 302.979 220.031C302.598 220.017 302.236 219.856 301.972 219.582C301.707 219.307 301.559 218.94 301.559 218.559C301.559 218.177 301.707 217.811 301.972 217.536C302.237 217.262 302.598 217.101 302.979 217.087H302.979ZM303.695 225.428L303.676 225.447C303.569 225.577 303.419 225.665 303.253 225.694C303.088 225.723 302.917 225.691 302.773 225.604C301.914 225.032 301.175 224.299 300.594 223.445C300.029 222.658 299.53 221.824 299.103 220.953C298.268 219.249 297.553 217.488 296.964 215.684C296.395 213.888 295.875 212.073 295.463 210.238C295.041 208.413 294.648 206.578 294.373 204.713C294.903 206.519 295.423 208.315 296.022 210.081C296.62 211.847 297.219 213.613 297.916 215.34C298.57 217.065 299.34 218.744 300.222 220.364C300.909 221.754 301.854 222.999 303.008 224.034C304.085 222.764 305.246 221.568 306.482 220.453C307.891 219.19 309.412 218.057 311.025 217.067C312.659 216.077 314.413 215.302 316.245 214.761C317.937 214.317 319.693 214.165 321.436 214.31C321.564 212.554 321.652 210.797 321.76 209.031C321.868 207.098 321.92 205.162 321.917 203.222C322.182 205.145 322.28 207.098 322.368 209.041C322.457 210.984 322.447 212.926 322.427 214.879C322.427 214.944 322.413 215.009 322.388 215.069C322.362 215.129 322.325 215.183 322.279 215.229C322.232 215.274 322.177 215.31 322.117 215.334C322.056 215.359 321.992 215.371 321.927 215.37H321.858C320.082 215.27 318.303 215.479 316.599 215.988C314.903 216.561 313.28 217.328 311.761 218.274C310.233 219.236 308.795 220.333 307.463 221.552C306.107 222.742 304.847 224.038 303.695 225.428H303.695Z" fill="black"/>
<path d="M336.788 216.442C335.341 218.173 333.804 219.828 332.218 221.428L329.829 223.82L327.366 226.138C327.311 226.19 327.245 226.229 327.172 226.252C327.1 226.275 327.023 226.282 326.948 226.272C326.873 226.262 326.8 226.236 326.737 226.194C326.673 226.153 326.619 226.098 326.579 226.033L326.569 226.017C325.537 224.324 324.474 222.649 323.476 220.935C322.463 219.23 321.5 217.495 320.542 215.757L320.907 215.968C319.492 215.934 318.079 216.101 316.71 216.464C315.331 216.861 314.002 217.417 312.75 218.12C311.5 218.839 310.315 219.664 309.206 220.585C308.09 221.491 307.055 222.492 306.114 223.579L306.176 223.284C306.796 225.078 307.518 226.849 308.267 228.595C309.005 230.347 309.802 232.073 310.662 233.758C311.506 235.438 312.472 237.053 313.553 238.59C314.566 240.108 315.9 241.384 317.461 242.328C319.047 243.252 320.782 243.892 322.588 244.22C324.406 244.587 326.273 244.657 328.114 244.425C329.029 244.311 329.931 244.11 330.808 243.825C331.666 243.534 332.462 243.085 333.153 242.499C334.461 241.17 335.703 239.679 336.966 238.251C336.971 238.244 336.978 238.239 336.985 238.235C336.993 238.232 337.001 238.229 337.009 238.229C337.018 238.228 337.026 238.229 337.034 238.232C337.042 238.234 337.05 238.238 337.056 238.244C337.068 238.254 337.075 238.269 337.077 238.285C337.079 238.3 337.076 238.316 337.067 238.329C335.964 239.903 334.902 241.473 333.624 242.962C332.137 244.322 330.264 245.185 328.265 245.431C324.323 246.126 320.262 245.446 316.761 243.506C315.888 242.992 315.082 242.372 314.359 241.661C313.67 240.945 313.042 240.172 312.484 239.349C311.401 237.733 310.439 236.038 309.607 234.28C307.979 230.789 306.635 227.173 305.586 223.466L305.581 223.448C305.567 223.4 305.566 223.349 305.578 223.3C305.59 223.252 305.614 223.207 305.649 223.171C306.68 222.127 307.775 221.148 308.928 220.24C310.082 219.341 311.291 218.516 312.549 217.77C313.824 217.037 315.159 216.416 316.54 215.913C317.954 215.434 319.429 215.161 320.921 215.102C320.988 215.099 321.056 215.114 321.116 215.145C321.176 215.176 321.227 215.223 321.264 215.28L321.286 215.313C322.363 216.98 323.434 218.65 324.455 220.35C325.491 222.041 326.463 223.771 327.465 225.482L326.668 225.362L331.702 220.888C333.367 219.38 335.047 217.888 336.695 216.355C336.707 216.343 336.722 216.337 336.739 216.337C336.755 216.337 336.771 216.343 336.783 216.355C336.795 216.366 336.802 216.381 336.803 216.397C336.804 216.414 336.798 216.43 336.788 216.442V216.442Z" fill="black"/>
<path d="M336.671 216.33C337.377 215.377 338.095 214.449 338.814 213.532C339.483 212.548 340.153 211.547 340.906 210.622C342.392 208.755 343.973 206.965 345.64 205.258C347.288 203.534 349.039 201.912 350.882 200.399C352.561 198.85 354.249 197.139 355.946 195.514C356.803 194.7 357.644 193.871 358.515 193.069C358.934 192.663 359.456 192.26 359.92 191.862C360.419 191.485 360.944 191.145 361.491 190.845C362.573 190.256 363.726 189.81 364.923 189.519C366.085 189.203 367.267 188.959 368.459 188.79C369.667 188.592 370.899 188.586 372.109 188.771C372.741 188.878 373.34 189.124 373.865 189.491C374.027 189.594 374.164 189.731 374.268 189.891C374.372 190.052 374.44 190.233 374.468 190.423C374.463 190.617 374.41 190.808 374.316 190.979C374.221 191.149 374.087 191.294 373.925 191.402C372.889 192.06 371.751 192.542 370.558 192.828C369.404 193.157 368.248 193.426 367.07 193.671L367.404 193.152C367.629 193.566 367.981 193.896 368.409 194.094C368.642 194.21 368.885 194.302 369.136 194.37C369.395 194.449 369.621 194.466 370.016 194.591C370.234 194.659 370.433 194.777 370.598 194.935C370.763 195.093 370.889 195.286 370.967 195.501C371.071 195.903 371.046 196.327 370.895 196.713C370.662 197.334 370.322 197.908 369.891 198.412L370.058 197.981C370.086 198.51 370.192 199.032 370.372 199.531C370.414 199.642 370.464 199.749 370.52 199.853C370.608 200.026 370.682 200.204 370.742 200.388C370.841 200.714 370.916 201.046 370.966 201.383C371.075 202.049 371.096 202.727 371.029 203.398C371.005 203.603 370.96 203.805 370.897 204.001C370.846 204.15 370.773 204.29 370.679 204.417L370.586 204.534C370.556 204.569 370.579 204.547 370.572 204.556C370.572 204.556 370.57 204.555 370.566 204.567C370.497 204.721 370.458 204.887 370.449 205.056C370.407 205.555 370.462 206.057 370.611 206.534C370.722 206.909 370.776 207.299 370.77 207.691C370.756 207.991 370.668 208.283 370.513 208.541C370.339 208.819 370.086 209.039 369.785 209.172C369.385 209.337 368.952 209.408 368.52 209.379L367.603 209.359L365.768 209.316C364.618 209.238 363.463 209.221 362.311 209.265C360.76 209.453 359.338 210.224 358.334 211.421C358.036 211.784 357.635 212.35 357.289 212.81C356.574 213.782 355.849 214.746 355.113 215.702C352.201 219.548 349.247 223.362 346.25 227.144C343.235 230.91 340.22 234.676 337.094 238.35C337.085 238.36 337.075 238.368 337.064 238.374C337.052 238.38 337.04 238.383 337.027 238.384C337.014 238.385 337.001 238.384 336.989 238.38C336.976 238.376 336.965 238.37 336.955 238.361C336.937 238.345 336.926 238.323 336.923 238.299C336.92 238.275 336.925 238.25 336.939 238.23C339.568 234.171 342.309 230.203 345.05 226.236C347.812 222.286 350.614 218.366 353.455 214.478C354.16 213.503 354.874 212.533 355.596 211.57C355.978 211.07 356.268 210.647 356.731 210.076C357.176 209.546 357.688 209.075 358.253 208.675C359.389 207.881 360.714 207.399 362.095 207.278C363.352 207.249 364.609 207.294 365.86 207.413L367.638 207.502C368.103 207.552 368.571 207.559 369.038 207.524C369.057 207.518 369.008 207.548 368.989 207.586C368.972 207.636 368.977 207.619 368.988 207.579C368.985 207.367 368.957 207.156 368.902 206.952C368.73 206.264 368.69 205.55 368.786 204.848C368.833 204.414 368.983 203.999 369.223 203.634C369.264 203.576 369.308 203.521 369.357 203.469C369.374 203.448 369.423 203.399 369.415 203.404L369.389 203.43C369.353 203.498 369.375 203.447 369.381 203.448C369.412 203.358 369.436 203.265 369.452 203.171C369.525 202.644 369.53 202.11 369.468 201.582C369.442 201.321 369.397 201.062 369.334 200.807C369.306 200.702 369.273 200.599 369.233 200.499C369.158 200.332 369.093 200.16 369.039 199.985C368.851 199.334 368.762 198.658 368.776 197.981V197.971C368.777 197.814 368.836 197.664 368.943 197.549C369.297 197.187 369.589 196.768 369.807 196.311C369.885 196.156 369.921 195.985 369.913 195.812C369.904 195.732 369.823 195.652 369.642 195.564C369.486 195.496 369.132 195.42 368.837 195.314C368.531 195.21 368.235 195.076 367.955 194.913C367.331 194.58 366.851 194.031 366.602 193.37C366.583 193.315 366.576 193.257 366.582 193.199C366.588 193.142 366.607 193.087 366.637 193.037C366.667 192.988 366.708 192.946 366.756 192.914C366.805 192.882 366.859 192.861 366.917 192.853L366.936 192.851C368.097 192.694 369.248 192.471 370.383 192.184C371.503 191.955 372.574 191.532 373.548 190.934C374.013 190.582 373.969 190.313 373.507 189.973C373.052 189.67 372.537 189.47 371.996 189.389C370.858 189.241 369.703 189.293 368.583 189.542C367.442 189.777 366.32 190.093 365.225 190.488C364.141 190.838 363.106 191.327 362.147 191.944C361.677 192.248 361.229 192.586 360.808 192.954C360.406 193.361 360.006 193.705 359.604 194.153C358.807 195.029 357.975 195.874 357.154 196.729C355.48 198.424 353.837 200.081 351.996 201.696C350.112 203.149 348.41 204.708 346.676 206.316C344.957 207.918 343.273 209.561 341.668 211.275C340.866 212.134 340.087 213.007 339.33 213.911C338.495 214.778 337.659 215.635 336.812 216.467C336.794 216.484 336.771 216.494 336.746 216.494C336.722 216.495 336.698 216.487 336.679 216.47C336.661 216.454 336.649 216.432 336.646 216.407C336.643 216.383 336.65 216.358 336.665 216.338L336.671 216.33Z" fill="black"/>
<path d="M323.565 231.279C323.462 230.699 323.508 230.101 323.699 229.543C323.964 228.717 324.395 227.954 324.967 227.302C325.538 226.649 326.237 226.121 327.021 225.75C326.764 226.248 326.475 226.73 326.155 227.191C325.865 227.651 325.547 228.077 325.264 228.525C324.67 229.41 324.114 230.265 323.565 231.279Z" fill="black"/>
<path d="M294.994 245.12C295.271 246.056 295.457 247.017 295.55 247.988C295.656 248.94 295.709 249.898 295.709 250.856C295.71 251.814 295.658 252.772 295.552 253.724C295.46 254.696 295.273 255.656 294.994 256.592C294.715 255.656 294.529 254.696 294.436 253.724C294.33 252.772 294.278 251.814 294.279 250.856C294.279 249.898 294.332 248.94 294.438 247.988C294.531 247.017 294.717 246.056 294.994 245.12Z" fill="black"/>
<path d="M334.625 245.12C334.902 246.056 335.088 247.017 335.181 247.988C335.287 248.94 335.34 249.898 335.34 250.856C335.341 251.814 335.289 252.772 335.183 253.724C335.09 254.696 334.903 255.656 334.625 256.592C334.346 255.656 334.159 254.696 334.067 253.724C333.961 252.772 333.909 251.814 333.91 250.856C333.91 249.898 333.963 248.94 334.069 247.988C334.162 247.017 334.348 246.056 334.625 245.12Z" fill="black"/>
<path d="M357.536 454.93C354.465 447.866 340.923 385.772 341.826 343.687C342.719 301.592 336.93 250.518 336.93 250.518H292.234C276.721 292.535 288.084 320.952 288.084 325.868C288.084 330.784 255.83 452.438 261.05 445.059C266.271 437.67 294.992 442.665 305.883 450.613C321.701 462.172 360.607 461.995 357.536 454.93ZM266.123 438.691C265.742 438.677 265.381 438.516 265.116 438.242C264.851 437.967 264.703 437.601 264.703 437.219C264.703 436.837 264.851 436.471 265.116 436.196C265.381 435.922 265.742 435.761 266.123 435.747C266.505 435.761 266.866 435.922 267.131 436.196C267.396 436.471 267.544 436.837 267.544 437.219C267.544 437.601 267.396 437.967 267.131 438.242C266.866 438.516 266.505 438.677 266.123 438.691ZM275.308 438.22C274.927 438.206 274.565 438.045 274.3 437.771C274.036 437.496 273.888 437.13 273.888 436.748C273.888 436.366 274.036 436 274.3 435.725C274.565 435.451 274.927 435.29 275.308 435.276C275.689 435.29 276.05 435.451 276.315 435.725C276.58 436 276.728 436.366 276.728 436.748C276.728 437.13 276.58 437.496 276.315 437.771C276.05 438.045 275.689 438.206 275.308 438.22ZM285.67 440.339C285.288 440.326 284.927 440.165 284.662 439.89C284.397 439.616 284.249 439.249 284.249 438.867C284.249 438.486 284.397 438.119 284.662 437.845C284.927 437.57 285.288 437.409 285.67 437.396C286.051 437.409 286.412 437.57 286.677 437.845C286.942 438.119 287.09 438.486 287.09 438.867C287.09 439.249 286.942 439.616 286.677 439.89C286.412 440.165 286.051 440.326 285.67 440.339V440.339ZM295.796 443.401C295.415 443.387 295.054 443.226 294.789 442.952C294.524 442.677 294.376 442.31 294.376 441.929C294.376 441.547 294.524 441.181 294.789 440.906C295.054 440.632 295.415 440.471 295.796 440.457C296.178 440.471 296.539 440.632 296.804 440.906C297.069 441.181 297.217 441.547 297.217 441.929C297.217 442.311 297.069 442.677 296.804 442.952C296.539 443.226 296.178 443.387 295.796 443.401V443.401ZM305.216 447.875C304.835 447.862 304.474 447.701 304.209 447.426C303.944 447.152 303.796 446.785 303.796 446.403C303.796 446.022 303.944 445.655 304.209 445.381C304.474 445.106 304.835 444.945 305.216 444.932C305.597 444.945 305.959 445.106 306.224 445.381C306.489 445.655 306.637 446.022 306.637 446.403C306.637 446.785 306.489 447.152 306.224 447.426C305.959 447.701 305.597 447.862 305.216 447.875ZM309.112 368.62C308.709 378.344 307.699 387.98 306.521 397.596C305.344 407.213 303.901 416.789 302.213 426.327L305 397.43C305.432 392.621 305.893 387.804 306.256 382.995C306.649 378.178 306.992 373.36 307.159 368.552C307.237 366.157 307.296 363.753 307.208 361.379C307.177 360.215 307.069 359.055 306.884 357.905C306.845 357.636 306.786 357.371 306.708 357.11C306.629 356.865 306.58 356.639 306.452 356.325C306.237 355.746 306.021 355.158 305.834 354.579C304.313 349.947 302.92 345.326 301.566 340.674C298.848 331.382 296.3 322.044 293.922 312.66C297.042 321.825 300.078 331.013 303.028 340.223C304.539 344.815 305.982 349.437 307.581 353.97C307.777 354.549 307.993 355.089 308.199 355.639C308.447 356.255 308.628 356.897 308.739 357.552C308.957 358.787 309.084 360.037 309.122 361.29C309.229 363.753 309.19 366.187 309.112 368.62V368.62ZM313.694 452.585C313.313 452.572 312.952 452.411 312.687 452.136C312.422 451.862 312.274 451.495 312.274 451.113C312.274 450.732 312.422 450.365 312.687 450.091C312.952 449.816 313.313 449.655 313.694 449.642C314.075 449.655 314.437 449.816 314.702 450.091C314.967 450.365 315.115 450.732 315.115 451.113C315.115 451.495 314.967 451.862 314.702 452.136C314.437 452.411 314.075 452.572 313.694 452.585L313.694 452.585ZM323.585 455.411C323.204 455.398 322.842 455.237 322.578 454.962C322.313 454.688 322.165 454.321 322.165 453.939C322.165 453.558 322.313 453.191 322.578 452.917C322.842 452.642 323.204 452.481 323.585 452.467C323.966 452.481 324.328 452.642 324.593 452.916C324.858 453.191 325.006 453.558 325.006 453.939C325.006 454.321 324.858 454.688 324.593 454.962C324.328 455.237 323.966 455.398 323.585 455.411L323.585 455.411ZM334.418 456.824C334.037 456.811 333.675 456.65 333.41 456.375C333.145 456.1 332.997 455.734 332.997 455.352C332.997 454.971 333.145 454.604 333.41 454.33C333.675 454.055 334.037 453.894 334.418 453.88C334.799 453.894 335.161 454.055 335.426 454.329C335.691 454.604 335.839 454.971 335.839 455.352C335.839 455.734 335.691 456.101 335.426 456.376C335.161 456.65 334.799 456.811 334.418 456.824V456.824ZM343.838 456.824C343.456 456.811 343.095 456.65 342.83 456.375C342.565 456.1 342.417 455.734 342.417 455.352C342.417 454.971 342.565 454.604 342.83 454.33C343.095 454.055 343.456 453.894 343.838 453.88C344.219 453.894 344.581 454.055 344.846 454.329C345.111 454.604 345.259 454.971 345.259 455.352C345.259 455.734 345.111 456.101 344.846 456.376C344.581 456.65 344.219 456.811 343.838 456.824V456.824ZM352.787 455.647C352.405 455.633 352.044 455.472 351.779 455.197C351.514 454.923 351.366 454.556 351.366 454.175C351.366 453.793 351.514 453.427 351.779 453.152C352.044 452.877 352.405 452.716 352.787 452.703C353.168 452.716 353.53 452.877 353.795 453.152C354.06 453.426 354.208 453.793 354.208 454.175C354.208 454.557 354.06 454.923 353.795 455.198C353.53 455.472 353.168 455.633 352.787 455.647L352.787 455.647Z" fill="black"/>
<path d="M319.689 454.931C319.82 457.878 319.597 460.831 319.026 463.725C318.85 464.455 318.608 465.167 318.301 465.852C318.039 466.512 317.816 467.186 317.631 467.871C317.249 469.207 317.182 470.613 317.436 471.979C317.735 473.304 318.445 474.5 319.464 475.397C319.719 475.625 319.987 475.84 320.266 476.039L320.697 476.326C320.859 476.433 321.025 476.541 321.176 476.655C321.71 477.104 322.291 477.494 322.908 477.819C324.214 478.337 325.6 478.626 327.005 478.673C328.445 478.774 329.901 478.794 331.358 478.778C337.197 478.593 343.019 478.058 348.794 477.175L366.144 474.665L365.614 475.201C365.598 475.09 365.574 474.98 365.541 474.873C365.49 474.722 365.424 474.577 365.344 474.439C365.173 474.135 364.964 473.855 364.723 473.605C364.207 473.069 363.627 472.598 362.996 472.204C361.681 471.385 360.288 470.7 358.838 470.157C357.365 469.597 355.883 469.132 354.337 468.677C352.801 468.212 351.278 467.696 349.768 467.144C346.716 466.089 343.789 464.703 341.039 463.011C339.652 462.156 338.4 461.101 337.321 459.88C336.206 458.664 335.58 457.078 335.562 455.429C335.563 455.413 335.57 455.398 335.581 455.386C335.593 455.375 335.608 455.369 335.624 455.369C335.64 455.369 335.655 455.375 335.667 455.386C335.679 455.397 335.686 455.412 335.686 455.428C335.831 457 336.538 458.468 337.677 459.562C338.792 460.667 340.053 461.615 341.425 462.379C344.203 463.893 347.119 465.138 350.134 466.099C353.132 467.132 356.23 467.805 359.308 468.924C360.851 469.495 362.331 470.226 363.723 471.104C364.444 471.562 365.101 472.114 365.676 472.746C365.982 473.078 366.244 473.447 366.456 473.845C366.724 474.302 366.858 474.826 366.842 475.356C366.838 475.487 366.788 475.612 366.7 475.709C366.612 475.806 366.492 475.869 366.362 475.885L366.312 475.892C360.511 476.635 354.7 477.32 348.871 477.836C343.04 478.333 337.23 478.966 331.379 479.346C329.916 479.441 328.447 479.502 326.966 479.476C325.442 479.504 323.925 479.26 322.486 478.755C321.798 478.422 321.147 478.015 320.545 477.543L319.633 476.941C319.316 476.718 319.011 476.477 318.72 476.219C317.528 475.167 316.717 473.75 316.413 472.189C316.156 470.664 316.259 469.101 316.712 467.622C316.915 466.898 317.176 466.19 317.493 465.508C317.819 464.875 318.085 464.212 318.286 463.529C318.967 460.706 319.394 457.828 319.565 454.929C319.566 454.912 319.573 454.897 319.585 454.886C319.597 454.875 319.614 454.869 319.63 454.87C319.645 454.871 319.66 454.878 319.671 454.889C319.682 454.9 319.688 454.915 319.689 454.931Z" fill="#020202"/>
<path d="M324.169 462.837C324.16 463.813 324.377 464.779 324.804 465.657C325.02 466.073 325.311 466.447 325.661 466.758C326.035 467.09 326.435 467.391 326.857 467.656C326.327 467.605 325.816 467.428 325.367 467.142C324.898 466.85 324.515 466.438 324.258 465.949C324.006 465.471 323.868 464.943 323.852 464.403C323.837 463.864 323.946 463.328 324.169 462.837Z" fill="#020202"/>
<path d="M318.576 475.78C318.576 475.78 315.098 477.118 317.253 483.443C317.253 483.443 317.047 485.829 325.501 485.103L368.144 483.749C368.144 483.749 371.07 476.668 364.469 475.516L353.797 476.861C353.797 476.861 356.25 470.402 355.438 468.347C354.236 466.524 352.463 465.151 350.397 464.443C348.331 463.735 346.088 463.733 344.02 464.435C344.02 464.435 344.799 474.643 337.035 478.398C337.035 478.398 325.425 478.198 318.576 475.78Z" fill="#020202"/>
<path d="M273.281 441.906C271.224 443.618 268.757 444.639 267.108 446.559C266.253 447.443 265.663 448.549 265.404 449.752C265.145 450.954 265.228 452.205 265.644 453.363C265.833 453.911 266.111 454.617 266.271 455.233C266.43 455.82 266.679 456.378 267.008 456.889C267.748 457.921 268.628 458.845 269.623 459.635C271.645 461.296 273.769 462.829 275.983 464.223C280.385 467.086 285.017 469.581 289.657 472.042L303.598 479.391L302.854 479.513C302.908 479.408 302.954 479.3 302.993 479.189C303.04 479.03 303.072 478.866 303.088 478.7C303.124 478.34 303.116 477.977 303.064 477.619C302.944 476.854 302.734 476.107 302.441 475.391C301.819 473.907 301.05 472.489 300.146 471.158C299.262 469.784 298.256 468.523 297.253 467.164C296.273 465.808 295.348 464.412 294.491 462.976C292.732 460.119 291.353 457.044 290.388 453.831C289.9 452.218 289.634 450.547 289.596 448.862C289.506 447.163 289.977 445.482 290.936 444.078C290.946 444.065 290.961 444.056 290.978 444.054C290.994 444.052 291.01 444.056 291.023 444.066C291.036 444.076 291.044 444.09 291.046 444.105C291.049 444.121 291.046 444.137 291.037 444.15C290.222 445.572 289.881 447.217 290.066 448.846C290.206 450.472 290.549 452.074 291.086 453.615C292.187 456.702 293.643 459.65 295.424 462.401C296.304 463.783 297.251 465.123 298.248 466.424C299.225 467.717 300.31 469.031 301.24 470.43C302.209 471.833 303.023 473.336 303.669 474.913C304.002 475.732 304.227 476.59 304.34 477.466C304.397 477.929 304.396 478.397 304.339 478.86C304.293 479.406 304.091 479.927 303.756 480.36C303.676 480.464 303.561 480.536 303.433 480.563C303.305 480.589 303.171 480.57 303.057 480.507L303.012 480.482C298.404 477.949 293.806 475.396 289.29 472.698L275.745 464.603C273.517 463.203 271.245 461.867 269.122 460.26C268.013 459.469 267.022 458.525 266.177 457.457C265.77 456.876 265.458 456.235 265.253 455.556C265.056 454.906 264.833 454.395 264.594 453.702C264.122 452.361 264.039 450.915 264.353 449.529C264.699 448.161 265.396 446.908 266.375 445.893C267.311 444.903 268.393 444.062 269.584 443.398C270.755 442.775 271.971 442.24 273.221 441.798C273.229 441.795 273.237 441.794 273.245 441.794C273.254 441.794 273.262 441.796 273.269 441.8C273.277 441.803 273.283 441.808 273.289 441.814C273.295 441.82 273.299 441.827 273.302 441.835C273.306 441.847 273.306 441.861 273.303 441.874C273.299 441.886 273.292 441.898 273.281 441.906Z" fill="#020202"/>
<path d="M276.614 445.133C276.031 445.917 275.639 446.825 275.467 447.787C275.397 448.251 275.413 448.723 275.513 449.182C275.62 449.669 275.766 450.148 275.952 450.611C275.553 450.258 275.244 449.815 275.049 449.319C274.841 448.807 274.774 448.248 274.854 447.701C274.932 447.167 275.131 446.658 275.436 446.213C275.741 445.768 276.144 445.398 276.614 445.133Z" fill="#020202"/>
<path d="M264.475 452.309C264.475 452.309 260.876 451.345 258.898 457.727C258.898 457.727 257.327 459.536 264.591 463.922L299.871 487.913C299.871 487.913 306.403 483.909 301.742 479.094L292.321 473.903C292.321 473.903 298.105 470.124 298.657 467.984C298.758 465.802 298.132 463.649 296.877 461.861C295.623 460.073 293.811 458.752 291.725 458.104C291.725 458.104 286.35 466.816 277.862 465.285C277.862 465.285 268.592 458.293 264.475 452.309Z" fill="#020202"/>
<path d="M308.761 151.784C308.761 151.784 299.257 143.492 308.761 137.502C318.266 131.511 320.061 140.033 320.061 140.033" fill="black"/>
<path d="M294.014 192.889C290.494 208.817 286.586 224.641 282.77 240.488C278.933 256.329 274.452 272.015 270.713 287.884C268.841 295.816 267.067 303.771 265.391 311.748C263.673 319.709 262.282 327.752 260.088 335.663C259.021 339.628 257.755 343.538 256.295 347.376C254.852 351.264 253.013 354.994 250.806 358.506C249.664 360.287 248.332 361.939 246.835 363.433C245.275 364.974 243.41 366.173 241.361 366.954C239.219 367.693 236.898 367.739 234.729 367.084C232.597 366.429 230.665 365.246 229.112 363.645L230.606 362.344C233.504 365.635 236.812 368.541 240.449 370.993C244.053 373.482 248.13 375.205 252.427 376.054C254.568 376.451 256.756 376.523 258.918 376.269L262.22 375.746C263.344 375.573 264.477 375.46 265.613 375.408C267.931 375.244 270.246 375.766 272.27 376.908C273.239 377.579 273.96 378.552 274.319 379.675C274.657 380.776 274.697 381.947 274.435 383.068C274.429 383.093 274.414 383.115 274.393 383.128C274.371 383.142 274.345 383.147 274.32 383.142C274.295 383.137 274.273 383.123 274.259 383.102C274.245 383.081 274.239 383.055 274.243 383.03L274.245 383.021C274.436 381.94 274.338 380.829 273.962 379.798C273.581 378.792 272.878 377.94 271.963 377.376C270.006 376.424 267.816 376.058 265.656 376.319C264.559 376.411 263.469 376.561 262.388 376.77L259.082 377.42C256.804 377.774 254.485 377.784 252.204 377.449C247.667 376.69 243.34 374.989 239.501 372.455C237.578 371.232 235.739 369.879 233.999 368.407C232.239 366.939 230.596 365.336 229.085 363.614C228.916 363.421 228.83 363.17 228.843 362.914C228.856 362.658 228.968 362.417 229.156 362.242C229.343 362.067 229.591 361.971 229.847 361.976C230.104 361.98 230.348 362.083 230.53 362.264L230.579 362.314C231.896 363.634 233.517 364.61 235.301 365.156C237.066 365.682 238.951 365.636 240.688 365.026C242.454 364.333 244.057 363.283 245.397 361.942C246.771 360.54 248.011 359.013 249.102 357.381C251.277 354.011 253.099 350.426 254.541 346.683C256.024 342.93 257.306 339.088 258.45 335.198C259.043 333.26 259.535 331.289 260.083 329.335L261.54 323.417L264.412 311.527C266.357 303.608 268.258 295.68 270.113 287.742C273.851 271.873 277.065 255.875 281.069 240.067C285.098 224.267 289.168 208.476 293.824 192.84C293.831 192.815 293.848 192.795 293.87 192.782C293.892 192.77 293.918 192.766 293.943 192.773C293.967 192.779 293.989 192.795 294.002 192.817C294.015 192.838 294.019 192.864 294.014 192.889L294.014 192.889Z" fill="black"/>
<path d="M276.613 39.8247L267.785 57.3529C267.759 57.4034 267.715 57.4417 267.661 57.4594C267.608 57.4771 267.549 57.4728 267.499 57.4474C267.448 57.4219 267.41 57.3775 267.392 57.3238C267.374 57.2702 267.379 57.2117 267.404 57.1612L267.406 57.157L276.613 39.8247Z" fill="black"/>
<path d="M249.85 92.7208L231.819 128.039C231.728 128.216 231.571 128.349 231.382 128.41C231.193 128.471 230.987 128.454 230.811 128.364C230.634 128.274 230.5 128.117 230.438 127.928C230.377 127.739 230.392 127.533 230.482 127.356L230.486 127.349L248.898 92.2283C248.964 92.1027 249.077 92.0084 249.212 91.9657C249.347 91.9231 249.493 91.9357 249.619 92.0008C249.745 92.066 249.84 92.1783 249.883 92.3132C249.926 92.4481 249.915 92.5947 249.85 92.7208Z" fill="black"/>
<path d="M213.707 163.314L195.549 198.566C195.492 198.677 195.414 198.775 195.32 198.856C195.225 198.936 195.115 198.998 194.997 199.036C194.879 199.074 194.754 199.088 194.63 199.078C194.506 199.068 194.386 199.033 194.275 198.976C194.165 198.919 194.067 198.841 193.986 198.746C193.906 198.651 193.845 198.541 193.808 198.423C193.77 198.304 193.756 198.18 193.767 198.056C193.777 197.932 193.812 197.812 193.869 197.701L193.871 197.698L212.156 162.512C212.262 162.306 212.446 162.151 212.667 162.081C212.887 162.011 213.127 162.032 213.332 162.138C213.538 162.245 213.693 162.428 213.763 162.649C213.833 162.869 213.813 163.109 213.707 163.314V163.314Z" fill="black"/>
<path d="M177.329 233.786L159.044 268.973C158.937 269.178 158.753 269.333 158.532 269.402C158.311 269.472 158.072 269.452 157.866 269.345C157.661 269.239 157.506 269.055 157.435 268.835C157.364 268.614 157.384 268.375 157.49 268.169L175.648 232.916C175.705 232.806 175.783 232.708 175.878 232.627C175.972 232.547 176.082 232.486 176.201 232.448C176.319 232.41 176.444 232.396 176.568 232.407C176.691 232.417 176.812 232.451 176.923 232.508C177.033 232.565 177.131 232.643 177.212 232.738C177.292 232.833 177.353 232.943 177.391 233.061C177.429 233.18 177.443 233.304 177.433 233.428C177.422 233.552 177.388 233.673 177.331 233.783L177.329 233.786Z" fill="black"/>
<path d="M140.715 304.137L122.302 339.257C122.236 339.382 122.122 339.477 121.987 339.519C121.852 339.562 121.705 339.549 121.579 339.484C121.453 339.419 121.357 339.306 121.314 339.171C121.27 339.036 121.282 338.889 121.346 338.762L139.375 303.444C139.42 303.355 139.482 303.277 139.558 303.212C139.633 303.148 139.72 303.099 139.815 303.068C139.909 303.037 140.009 303.025 140.107 303.033C140.206 303.041 140.303 303.068 140.391 303.113C140.479 303.158 140.558 303.22 140.622 303.296C140.687 303.372 140.735 303.459 140.766 303.553C140.796 303.648 140.808 303.747 140.8 303.846C140.792 303.945 140.764 304.041 140.719 304.13L140.715 304.137Z" fill="black"/>
<path d="M103.793 374.327L94.5847 391.659L103.412 374.131C103.425 374.105 103.442 374.083 103.464 374.065C103.485 374.046 103.51 374.032 103.537 374.024C103.563 374.015 103.591 374.011 103.619 374.013C103.648 374.015 103.675 374.023 103.7 374.036C103.725 374.048 103.748 374.066 103.766 374.087C103.784 374.108 103.798 374.133 103.807 374.16C103.816 374.186 103.819 374.215 103.817 374.243C103.815 374.271 103.808 374.298 103.795 374.323L103.793 374.327Z" fill="black"/>
<path d="M629.945 158.341L621.116 175.869C621.104 175.894 621.086 175.916 621.065 175.934C621.044 175.953 621.019 175.967 620.993 175.975C620.966 175.984 620.938 175.988 620.91 175.986C620.882 175.984 620.855 175.976 620.83 175.963C620.805 175.951 620.783 175.933 620.765 175.912C620.746 175.891 620.732 175.866 620.724 175.84C620.715 175.813 620.711 175.785 620.713 175.757C620.716 175.729 620.723 175.702 620.736 175.677L620.738 175.673L629.945 158.341Z" fill="black"/>
<path d="M603.182 211.237L585.151 246.555C585.107 246.643 585.045 246.721 584.97 246.786C584.895 246.85 584.808 246.899 584.714 246.93C584.62 246.96 584.521 246.972 584.422 246.964C584.324 246.957 584.228 246.929 584.14 246.884C584.052 246.84 583.974 246.778 583.91 246.702C583.845 246.627 583.797 246.54 583.767 246.446C583.736 246.352 583.725 246.253 583.733 246.154C583.741 246.056 583.768 245.96 583.814 245.872L583.818 245.865L602.23 210.744C602.296 210.619 602.408 210.525 602.543 210.483C602.678 210.441 602.824 210.453 602.95 210.518C603.076 210.583 603.17 210.695 603.214 210.83C603.257 210.964 603.246 211.111 603.182 211.237H603.182Z" fill="black"/>
<path d="M567.039 281.831L548.88 317.083C548.823 317.193 548.746 317.291 548.651 317.371C548.556 317.451 548.447 317.512 548.328 317.55C548.21 317.587 548.086 317.602 547.962 317.591C547.839 317.581 547.718 317.547 547.608 317.49C547.498 317.433 547.4 317.355 547.32 317.26C547.239 317.166 547.179 317.056 547.141 316.938C547.103 316.82 547.089 316.695 547.099 316.572C547.109 316.448 547.144 316.328 547.201 316.217L547.202 316.214L565.487 281.028C565.593 280.822 565.777 280.667 565.998 280.597C566.219 280.527 566.458 280.547 566.664 280.653C566.87 280.76 567.025 280.944 567.095 281.164C567.165 281.385 567.145 281.625 567.039 281.831Z" fill="black"/>
<path d="M530.661 352.303L512.376 387.489C512.269 387.695 512.085 387.85 511.864 387.921C511.643 387.991 511.402 387.971 511.196 387.864C510.99 387.757 510.835 387.573 510.765 387.352C510.694 387.131 510.715 386.891 510.821 386.685L528.979 351.433C529.094 351.209 529.293 351.041 529.532 350.964C529.771 350.888 530.031 350.91 530.254 351.025C530.477 351.139 530.646 351.338 530.722 351.578C530.799 351.817 530.777 352.076 530.662 352.3L530.661 352.303Z" fill="black"/>
<path d="M494.047 422.653L475.634 457.773C475.568 457.9 475.455 457.995 475.319 458.038C475.183 458.082 475.035 458.069 474.908 458.003C474.782 457.938 474.686 457.825 474.643 457.689C474.6 457.553 474.612 457.405 474.678 457.278L492.707 421.96C492.798 421.781 492.956 421.647 493.146 421.585C493.241 421.555 493.34 421.543 493.439 421.551C493.538 421.559 493.634 421.586 493.722 421.631C493.81 421.676 493.889 421.738 493.953 421.813C494.017 421.889 494.066 421.976 494.097 422.07C494.127 422.164 494.139 422.264 494.131 422.362C494.123 422.461 494.096 422.557 494.051 422.645L494.047 422.653Z" fill="black"/>
<path d="M457.124 492.844L447.916 510.175L456.744 492.647C456.757 492.622 456.774 492.599 456.795 492.581C456.817 492.562 456.841 492.548 456.868 492.54C456.895 492.531 456.923 492.527 456.951 492.529C456.979 492.531 457.006 492.539 457.032 492.552C457.057 492.564 457.079 492.582 457.097 492.603C457.116 492.624 457.13 492.649 457.139 492.676C457.147 492.703 457.151 492.731 457.149 492.759C457.147 492.787 457.139 492.814 457.127 492.839L457.124 492.844Z" fill="black"/>
<path d="M252.323 228.515C249.431 234.383 246.514 240.239 243.572 246.083C243.554 246.118 243.53 246.149 243.5 246.175C243.47 246.201 243.436 246.22 243.398 246.233C243.361 246.245 243.321 246.25 243.282 246.247C243.243 246.244 243.204 246.234 243.169 246.216C243.134 246.199 243.103 246.174 243.077 246.144C243.051 246.115 243.032 246.08 243.019 246.043C243.007 246.005 243.002 245.966 243.005 245.927C243.008 245.887 243.018 245.849 243.036 245.814L243.039 245.807C246.118 240.035 249.213 234.271 252.323 228.515Z" fill="black"/>
<path d="M223.267 286.286C219.885 292.987 216.471 299.672 213.026 306.341L202.732 326.369C202.676 326.477 202.601 326.572 202.509 326.65C202.416 326.728 202.31 326.788 202.195 326.825C202.08 326.862 201.959 326.875 201.838 326.866C201.718 326.856 201.601 326.822 201.493 326.767C201.386 326.712 201.291 326.636 201.212 326.544C201.134 326.452 201.075 326.345 201.038 326.23C201.001 326.115 200.987 325.994 200.997 325.874C201.007 325.753 201.041 325.636 201.096 325.529L201.098 325.524L211.499 305.552C214.956 298.889 218.441 292.24 221.953 285.606C222.045 285.434 222.2 285.304 222.386 285.246C222.572 285.188 222.774 285.206 222.947 285.295C223.12 285.385 223.251 285.539 223.311 285.725C223.371 285.91 223.355 286.112 223.267 286.286Z" fill="black"/>
<path d="M182.038 366.371L171.636 386.343C168.177 393.005 164.693 399.654 161.184 406.29C161.092 406.463 160.936 406.593 160.749 406.651C160.562 406.71 160.36 406.692 160.186 406.602C160.012 406.512 159.88 406.357 159.82 406.171C159.76 405.984 159.776 405.782 159.864 405.607C163.246 398.905 166.66 392.22 170.107 385.552L180.401 365.524C180.456 365.416 180.532 365.32 180.624 365.242C180.717 365.163 180.824 365.104 180.939 365.067C181.054 365.03 181.176 365.016 181.296 365.026C181.417 365.035 181.535 365.069 181.642 365.124C181.75 365.18 181.846 365.256 181.924 365.348C182.003 365.441 182.062 365.548 182.099 365.663C182.136 365.778 182.15 365.9 182.14 366.02C182.129 366.141 182.096 366.259 182.04 366.366L182.038 366.371Z" fill="black"/>
<path d="M140.097 446.088C137.017 451.86 133.922 457.624 130.811 463.38C133.703 457.51 136.619 451.654 139.561 445.811C139.597 445.739 139.66 445.685 139.736 445.66C139.812 445.635 139.894 445.641 139.966 445.677C140.037 445.712 140.092 445.775 140.117 445.851C140.142 445.927 140.136 446.01 140.1 446.081L140.097 446.088Z" fill="black"/>
<path d="M191.567 61.7446C188.675 67.6134 185.757 73.4694 182.816 79.3125C182.78 79.3833 182.717 79.437 182.642 79.4618C182.567 79.4866 182.485 79.4806 182.414 79.4451C182.343 79.4095 182.289 79.3473 182.264 79.2721C182.239 79.1969 182.244 79.1148 182.28 79.0438L182.283 79.037C185.362 73.2646 188.456 67.5004 191.567 61.7446Z" fill="black"/>
<path d="M162.511 119.516C159.128 126.217 155.715 132.902 152.27 139.571L141.976 159.599C141.92 159.707 141.845 159.803 141.753 159.881C141.66 159.959 141.554 160.019 141.439 160.056C141.324 160.093 141.202 160.107 141.082 160.097C140.961 160.087 140.844 160.053 140.737 159.998C140.629 159.943 140.533 159.867 140.455 159.775C140.377 159.682 140.318 159.576 140.281 159.461C140.244 159.345 140.23 159.224 140.24 159.104C140.251 158.983 140.284 158.866 140.34 158.758L140.342 158.754L150.743 138.781C154.2 132.118 157.685 125.47 161.197 118.836C161.288 118.664 161.444 118.534 161.63 118.476C161.816 118.418 162.018 118.436 162.191 118.525C162.364 118.615 162.495 118.769 162.555 118.954C162.615 119.14 162.599 119.342 162.511 119.516Z" fill="black"/>
<path d="M121.282 199.601L110.88 219.574C107.422 226.235 103.937 232.884 100.428 239.52C100.336 239.693 100.18 239.823 99.9933 239.881C99.8064 239.94 99.604 239.922 99.4302 239.832C99.2563 239.742 99.1249 239.587 99.0646 239.401C99.0044 239.214 99.0201 239.012 99.1083 238.837C102.49 232.135 105.904 225.451 109.351 218.783L119.645 198.754C119.7 198.647 119.776 198.551 119.869 198.473C119.961 198.394 120.068 198.335 120.183 198.298C120.298 198.261 120.42 198.247 120.54 198.257C120.661 198.267 120.778 198.301 120.886 198.356C120.994 198.411 121.089 198.487 121.167 198.579C121.246 198.672 121.305 198.779 121.342 198.894C121.379 199.009 121.393 199.13 121.383 199.251C121.373 199.372 121.34 199.489 121.284 199.597L121.282 199.601Z" fill="black"/>
<path d="M79.3406 279.318C76.2612 285.09 73.166 290.854 70.0549 296.61C72.9466 290.74 75.8633 284.884 78.8051 279.041C78.8409 278.969 78.9037 278.915 78.9796 278.89C79.0555 278.865 79.1382 278.871 79.2097 278.907C79.2812 278.942 79.3355 279.005 79.3607 279.081C79.3859 279.157 79.3799 279.24 79.3441 279.311L79.3406 279.318Z" fill="black"/>
<path d="M538.931 45.834C536.038 51.7028 533.121 57.5587 530.179 63.4019C530.144 63.473 530.081 63.527 530.006 63.552C529.93 63.5771 529.848 63.5712 529.777 63.5355C529.706 63.4999 529.652 63.4374 529.627 63.362C529.602 63.2865 529.607 63.2042 529.643 63.1331L529.647 63.1264C532.725 57.3539 535.82 51.5898 538.931 45.834Z" fill="black"/>
<path d="M509.874 103.605C506.492 110.306 503.078 116.991 499.633 123.66L489.339 143.689C489.284 143.796 489.208 143.892 489.116 143.97C489.024 144.049 488.917 144.108 488.802 144.145C488.687 144.182 488.566 144.196 488.445 144.186C488.325 144.176 488.207 144.143 488.1 144.087C487.992 144.032 487.897 143.956 487.819 143.864C487.74 143.772 487.681 143.665 487.644 143.55C487.608 143.435 487.594 143.313 487.604 143.193C487.614 143.073 487.648 142.955 487.703 142.848L487.705 142.843L498.107 122.871C501.563 116.208 505.048 109.559 508.56 102.925C508.652 102.753 508.807 102.624 508.993 102.565C509.179 102.507 509.381 102.525 509.554 102.614C509.727 102.704 509.858 102.858 509.918 103.044C509.978 103.229 509.962 103.431 509.874 103.605H509.874Z" fill="black"/>
<path d="M468.645 183.69L458.244 203.663C454.785 210.324 451.301 216.973 447.791 223.609C447.7 223.782 447.543 223.911 447.357 223.97C447.17 224.028 446.968 224.01 446.794 223.92C446.62 223.83 446.489 223.676 446.429 223.489C446.368 223.303 446.384 223.101 446.472 222.926C449.853 216.224 453.268 209.54 456.715 202.872L467.008 182.843C467.064 182.735 467.139 182.639 467.232 182.561C467.324 182.482 467.431 182.422 467.546 182.385C467.662 182.348 467.783 182.334 467.904 182.344C468.025 182.354 468.143 182.387 468.25 182.443C468.358 182.498 468.454 182.574 468.532 182.667C468.611 182.759 468.67 182.866 468.707 182.982C468.744 183.097 468.758 183.219 468.747 183.34C468.737 183.46 468.703 183.578 468.648 183.686L468.645 183.69Z" fill="black"/>
<path d="M426.704 263.407C423.625 269.179 420.53 274.943 417.418 280.699C420.31 274.83 423.227 268.973 426.169 263.13C426.186 263.095 426.211 263.063 426.241 263.037C426.271 263.011 426.306 262.992 426.343 262.979C426.381 262.967 426.42 262.962 426.46 262.965C426.499 262.968 426.538 262.978 426.573 262.996C426.609 263.014 426.64 263.038 426.666 263.068C426.692 263.098 426.712 263.133 426.724 263.17C426.737 263.208 426.742 263.248 426.739 263.287C426.736 263.327 426.725 263.365 426.708 263.401L426.704 263.407Z" fill="black"/>
<path d="M518.316 216.826C515.423 222.695 512.506 228.551 509.564 234.394C509.528 234.465 509.466 234.519 509.39 234.544C509.315 234.569 509.233 234.563 509.161 234.527C509.09 234.492 509.036 234.429 509.011 234.354C508.986 234.278 508.992 234.196 509.028 234.125L509.031 234.118C512.11 228.346 515.205 222.582 518.316 216.826Z" fill="black"/>
<path d="M489.259 274.597C485.877 281.298 482.463 287.983 479.018 294.652L468.724 314.68C468.612 314.897 468.419 315.059 468.187 315.133C467.955 315.208 467.704 315.187 467.487 315.075C467.271 314.964 467.107 314.772 467.032 314.54C466.957 314.308 466.978 314.056 467.088 313.84L467.09 313.835L477.492 293.863C480.948 287.199 484.433 280.551 487.946 273.917C488.037 273.745 488.192 273.615 488.378 273.557C488.565 273.499 488.766 273.517 488.939 273.606C489.112 273.696 489.243 273.85 489.303 274.036C489.363 274.221 489.347 274.423 489.259 274.597H489.259Z" fill="black"/>
<path d="M448.03 354.682L437.629 374.655C434.17 381.317 430.686 387.965 427.176 394.601C427.085 394.774 426.929 394.904 426.742 394.963C426.555 395.021 426.352 395.004 426.178 394.914C426.004 394.824 425.873 394.669 425.813 394.482C425.752 394.296 425.768 394.093 425.857 393.918C429.238 387.216 432.653 380.532 436.1 373.864L446.393 353.835C446.505 353.618 446.699 353.454 446.931 353.379C447.164 353.304 447.417 353.325 447.634 353.437C447.852 353.549 448.016 353.742 448.09 353.975C448.165 354.208 448.144 354.46 448.033 354.678L448.03 354.682Z" fill="black"/>
<path d="M406.089 434.399C403.01 440.171 399.915 445.935 396.803 451.691C399.695 445.821 402.612 439.965 405.554 434.122C405.571 434.087 405.596 434.055 405.626 434.029C405.656 434.003 405.691 433.983 405.728 433.971C405.766 433.958 405.805 433.953 405.845 433.956C405.884 433.959 405.923 433.97 405.958 433.988C405.994 434.005 406.025 434.03 406.051 434.06C406.077 434.09 406.097 434.124 406.109 434.162C406.122 434.2 406.127 434.239 406.124 434.279C406.121 434.318 406.11 434.357 406.093 434.392L406.089 434.399Z" fill="black"/>
<path d="M322.073 160.797C322.477 161.012 322.863 161.26 323.225 161.539C323.541 161.806 323.926 161.98 324.336 162.039C324.252 162.158 324.141 162.253 324.012 162.318C323.883 162.383 323.74 162.415 323.595 162.411C323.308 162.405 323.029 162.309 322.798 162.138C322.582 161.986 322.403 161.786 322.277 161.553C322.151 161.32 322.081 161.061 322.073 160.797Z" fill="black"/>
<path d="M319.111 212.024C318.729 212.01 318.368 211.849 318.103 211.575C317.838 211.3 317.69 210.933 317.69 210.552C317.69 210.17 317.838 209.804 318.103 209.529C318.368 209.255 318.729 209.094 319.111 209.08C319.492 209.094 319.853 209.255 320.118 209.529C320.383 209.804 320.531 210.17 320.531 210.552C320.531 210.933 320.383 211.3 320.118 211.575C319.853 211.849 319.492 212.01 319.111 212.024Z" fill="white"/>
</svg>
